<svg xmlns="http://www.w3.org/2000/svg" width="448px" height="346px">
<g id="roads" transform="scale(1.8125) translate(-19,-15)">
	<g id="road-lines">
		<polyline points="142.907,16.4 146.311,15.4 
			149.915,14.8 150.916,14.8 151.316,15.2 155.722,14.8 162.329,14.4 179.749,13.6 		"/>
		<polyline points="139.504,18 139.504,16.4 142.907,16.4 
					"/>
		<polyline points="204.777,16.4 204.176,15.2 
			198.169,15.2 189.359,14.8 184.755,14.2 180.75,13.6 179.749,13.6 		"/>
		<line x1="204.777" y1="19.2" x2="204.777" y2="16.4"/>
		<polyline points="245.222,14.8 244.622,14.8 
			244.02,15.8 242.218,16.4 240.617,18 227.603,19.6 225.2,19.6 222.797,19.4 220.595,19.4 217.19,19.6 212.786,19.8 209.181,19.6 
			204.777,19.2 		"/>
		<path d="M99.058,28.6c0.601-0.2,1.202-0.4,1.602-1
			c1.602-1.4,3.003-2.8,4.404-4.6v-1.6h25.429l0.4-0.6l3.003-0.6l4.004-1.2l1.603-1"/>
		<polyline points="99.058,28.6 99.058,27.4 99.459,27.4 
			99.459,26.8 98.458,25.2 98.458,18.6 96.055,15.8 95.854,13.2 95.654,12.2 		"/>
		<polyline points="385.579,7 379.172,7.8 375.769,8.2 
			374.768,9.8 373.766,10.2 373.165,10.4 		"/>
		<polyline points="373.165,10.4 371.764,11.6 
			368.761,11.6 366.357,12 		"/>
		<polyline points="385.579,7 386.78,7.8 387.181,8.2 
			387.581,8.2 389.183,9.8 389.783,9.8 390.184,10.4 392.187,11 394.188,11.6 396.19,13 400.596,16 401.196,16.4 		"/>
		<path d="M4.353,29.2l3.003,1l1.001-0.6l5.005,3.2
			l4.405,3l3.003,2l5.005,3.2c1.201,0.6,2.402,1,3.604,1.2l8.81,0.8l2.603-0.4l10.011-2.8l2.803-0.2l13.015,0.2L77.033,40h4.406
			h1.201l1.001-1l1.402-0.4l1.402-0.4c1.001-0.4,2.002-0.8,3.003-1.4l0.6-1.2L91.45,35l0.801-1.4l2.203-3l0.601-1h0.601v-1h3.404"/>
		<path d="M231.206,42.8h-1.001l-2.602-1.6l-4.806-0.4
			l-1.603-0.4l-1.601-1.4h-0.401l-0.6-1.2l-2.404-0.8c-0.8-0.4-1.602-0.8-2.603-1.4l-6.407-1.6l-1.401-0.6l-0.602-0.6v-8.2
			l-0.399-5.4"/>
		<polyline points="401.196,16.4 405.602,18.2 
			406.603,19.2 408.605,21.4 408.605,22 		"/>
		<polyline points="401.196,16.4 401.196,17 401.598,19.2 
			401.196,19.2 401.598,20.4 401.196,20.4 402.197,23.6 		"/>
		<polyline points="408.605,22 408.204,22 407.604,21.4 
			406.603,22 406.603,22.6 404.801,22.8 403.198,23.6 402.197,23.6 		"/>
		<polyline points="408.605,22 409.205,22.6 410.206,23 
			410.607,24.6 410.607,25.8 412.208,27.4 		"/>
		<polyline points="402.197,23.6 402.197,25.8 
			401.598,26.2 401.598,28 401.196,28.6 401.196,29.6 400.596,30.2 400.596,30.8 		"/>
		<polyline points="412.208,27.4 411.608,27.4 410.006,29 
			407.604,30.8 407.203,31.2 405.2,31.2 403.198,30.8 402.599,31.2 402.197,30.8 401.598,31.2 401.196,30.8 400.596,30.8 		"/>
		<path d="M400.596,30.8h-0.4l-0.4,0.4v0.6l-2.202,1.6
			h-1.402l-1.601,1.4c-0.602,0.4-1.402,0.6-2.403,0.8h-1.002l-0.6,0.6h-3.404l-0.4,0.6l-2.002,0.4l-1.603,0.2l-5.005,1.6l-2.003,1"
			/>
		<path d="M373.165,10.4l0.2,0.6l0.4,1.6l1.002,0.6l0.6,2
			l0.801,1.2V18l-0.399,4l-1.001,1.6v0.6c0.6,0.6,0.8,1.4,0.8,2.2V29l0.201,3.8l0.399,5v1.8"/>
		<path d="M412.208,27.4l2.403,1l2.003,0.6l0.6,0.6
			l1.402-1l5.406,2.6h0.601l4.004,0.6l1.001-1l1.402-1.2l2.003-1.2c0.199,0,0.399-0.2,0.6-0.4h0.401l1.001,0.6l0.6,0.4l1.001-0.4
			l1.803,0.4"/>
		<path d="M125.488,86.6h1.001v-0.4l1.202-2.8
			c1.401-3.4,2.402-7,3.403-10.6l1.603-5.2l1.201-3l0.401-3.6l0.8-4.2l0.602-2.4l2.202-9.4l0.401-2.8l1.001-8.2l0.201-3.2V18"/>
		<path d="M125.488,86.6l-0.601-0.4h-0.4l-1.402-2.8v-0.6
			c-0.8-0.6-1.201-1.4-1.401-2.4c-0.601-3-0.801-6-1.001-9.2v-2.6l-0.2-1.2l-3.604-3.2h-1.001l-3.403-2.8l-1.602-2l-1.803-2
			l-3.403-5.4l-2.603-5.2l-1.401-3.2c-0.601-2.2-1.001-4.4-1.201-6.8l-0.2-4l0.2-3.2l-1.402-1"/>
		<line x1="125.488" y1="86.6" x2="125.488" y2="88.8"/>
		<line x1="125.488" y1="88.8" x2="124.887" y2="88.8"/>
		<polyline points="104.464,91 107.067,91.2 112.474,92 
			115.677,90.2 119.881,88.8 122.484,88.4 123.085,88.4 123.486,88.8 124.887,88.8 		"/>
		<path d="M64.62,94.8h1.001l1.401-1l1.602,0.6l5.006-1
			l1.001-0.2l1.401-1.2l4.004-0.6c0.601-0.2,1.001-0.6,1.402-1h0.6L82.64,90h5.406l6.007,0.4l7.007-0.2c0.601,0,1.001,0,1.402-0.2
			l1.001,0.4h0.401l0.601,0.6"/>
		<path d="M12.361,88l2.803,1.4l5.606,0.8l3.003,0.6
			l1.401,0.2l1.602,1l3.003,0.6h1.001c0.801,0.6,1.602,1.2,2.603,1.4l3.204,0.8h4.605L46.6,95l7.007,0.8l1.001,0.2l3.204-1
			l6.808-0.2"/>
		<polyline points="211.785,98.2 211.785,97.6 
			207.58,95.6 204.777,94.8 199.17,94 195.366,93.2 193.765,93.6 192.162,93.6 190.36,93.2 187.758,92.6 185.756,92.4 181.15,92 
			176.746,91.6 176.345,91 165.333,91 164.332,92 156.923,92.4 153.919,92.2 146.911,91.6 143.908,91 143.908,91.6 133.297,90.6 
			130.894,90.4 127.49,89.8 125.888,89.2 125.488,88.8 		"/>
		<path d="M213.186,98.2c-0.2,0.2-0.6,0.4-1.001,0.6
			l-0.399-0.6"/>
		<polyline points="211.184,98.8 211.785,98.8 
			211.785,98.2 		"/>
		<path d="M92.451,108.2l0.6-0.6l0.401-0.6v-0.6h0.601
			v-0.6h0.4v-1h0.601v-0.6h0.601v-0.6l0.4-0.6v-0.4l0.401-0.6v-0.6h0.6V101h0.401v-1.2h0.601v-0.4h0.4v-0.6l0.601-0.6v-1h0.401v-0.6
			h0.6V96l0.401-0.6h0.6v-0.6l0.401-0.4v-0.6h0.601v-0.6h0.4v-0.6h0.601V92h0.4v-0.4h0.401c0.2-0.2,0.4-0.4,0.601-0.6"/>
		<path d="M92.451,108.2l2.002,0.2l4.605-0.2h3.404
			l2.203-1l1.202-0.4c1.401-0.6,2.803-1.2,4.204-2.2l1.402-1l1.001-1V102c2.202-1.4,4.205-3,6.207-4.8
			c0.801-0.6,1.602-1.4,2.203-2.4l2.202-2.8v-1.6h0.401l1.001-1h0.4"/>
		<path d="M400.596,30.8v1c0.4,0.2,0.801,0.4,1.002,0.6
			l1.001,4.8l2.602,3.4v1.2c0.603,0.4,1.001,1,1.202,1.6c0.601,0.6,0.801,1.4,1.001,2l0.801,2.4l-2.401,1.8l-1.002,1.4v3.2
			l-2.604,6.2l0.401,2.2l-1.402,1.6h-0.601l-0.601,1.6l-1.602,4.4l-0.801,3.2l-0.401,2.2l-3.403,1.2l-3.203,1l-3.404,1.2l-1.602,2
			l-2.803,2.8l-1.603,1.2"/>
		<path d="M438.638,61.6l-0.6,1l-1.001,2v2.8
			c-0.2,1.8-0.802,3.4-1.402,5l-1.601,3.2l-1.202,7.2c0,0.2,0,0.4-0.2,0.6"/>
		<polyline points="326.914,103 324.711,101.6 
			322.909,100.4 318.905,101 315.901,101.6 314.9,102 311.496,101.6 305.489,101 301.886,101 300.885,101 		"/>
		<polyline points="266.045,117.4 265.444,117.4 
			265.444,115.8 265.044,115.8 265.044,115.2 265.444,114.6 265.444,109.8 265.044,109.8 265.044,107 		"/>
		<path d="M427.226,93.8l0.4-1.8
			c0.801-1,1.402-2.2,2.002-3.4c0.602-0.6,0.801-1.2,1.001-2l1.002-0.6l0.4-0.4l0.601-2.2"/>
		<polyline points="359.35,104.8 358.349,104.8 
			358.349,105.4 357.748,105.4 357.748,105.8 356.747,105.8 356.747,106.4 355.746,106.4 355.746,107 355.345,107 355.345,107.6 
			354.945,107.6 354.945,108.2 348.738,108.2 348.738,108.6 348.337,109.2 347.336,109.2 347.336,109.8 346.736,109.2 
			344.333,109.2 343.933,108.6 343.332,108.6 343.332,108.2 341.931,108.2 341.931,107.6 341.329,107.6 340.729,108.2 
			339.928,108.2 339.928,107.6 338.927,107.6 338.326,108.2 337.726,107.6 337.325,107.6 337.325,106.4 336.324,105.4 
			335.723,105.4 335.723,104.8 334.923,104.8 334.923,104.2 333.922,104.2 333.32,103.6 333.32,103 		"/>
		<path d="M427.226,93.8h-0.601l-1.602-1.2h-1.001
			c-0.2-0.2-0.602-0.4-1.001-0.6l-1.001,1.6l-0.802,1.2h-0.601l-0.6-0.4h-1.402l-2.002,2.2l-1.602-0.2l-2.002-0.2l-0.803-0.2
			l-1.001,1.2h-1.001v0.4l-0.6,0.6h-1.402l-1.602-0.8l-2.403-0.8l-1.001-1.2h-1.001l-2.402,2.8l-0.602,1.2l-2.602,0.4l-2.804,2.2
			l-1.201,0.6"/>
		<polyline points="392.187,102.6 391.185,101 
			391.185,99.4 390.184,98.8 389.783,96 389.183,95.4 388.182,95.4 387.181,92.6 386.78,92 386.78,91.6 385.579,91.6 385.179,90.4 
			383.777,90.4 382.175,87.8 382.776,86.6 382.175,86.6 381.774,86.2 381.174,86.2 		"/>
		<polyline points="300.083,117.4 300.483,116.8 
			300.885,116.8 301.485,116.4 301.886,116.4 301.886,115.8 302.486,115.2 302.888,115.2 304.488,113.6 305.489,113.6 305.891,113 
			307.893,113 308.292,112.4 308.894,112.4 309.494,111.8 309.494,111.4 309.895,110.8 310.294,110.8 310.896,110.2 311.496,110.2 
			311.897,109.8 312.497,109.8 312.497,109.2 313.298,109.2 313.298,109.8 313.899,109.8 314.499,109.2 314.9,109.2 314.9,108.6 
			316.502,108.6 316.902,108.2 317.503,108.2 317.503,107.6 317.904,107.6 317.904,107 319.305,105.4 319.906,105.4 320.307,104.8 
			321.308,104.8 321.908,104.2 322.508,104.2 322.508,103.6 325.312,103.6 325.913,104.2 326.312,103.6 326.914,103.6 326.914,103 
					"/>
		<path d="M300.083,117.4c0.602-1.2,1.001-2.6,1.201-4
			c0.401-2.2,0.401-4.6,0.201-6.8c-0.201-1.6-0.401-3.2-1.002-4.6v-1"/>
		<path d="M237.213,125l0.401-3.8
			c0.201-3.2,0.201-6.4,0.201-9.8l-0.201-4.4l-0.401-1.6l-0.6-0.6"/>
		<path d="M71.027,131.2V130l2.603-1l4.004-2.2l2.603-3.2
			l1.801-1.8l2.603-3.2l1.001-0.6l0.801-1.6c0.601-0.4,1.001-0.8,1.401-1.4c0.801-1,1.602-2,2.202-3.2l2.403-3.6"/>
		<polyline points="71.027,131.2 70.626,130.6 71.027,130 
			71.027,126.8 71.027,119 71.027,118 65.02,110.8 64.82,97.2 64.62,94.8 		"/>
		<polyline points="281.463,127.8 282.062,127.4 
			283.465,127.4 284.065,126.8 285.867,126.8 286.469,126.2 289.07,126.2 289.472,125.6 290.071,125.6 290.071,125 290.473,125 
			290.873,124.6 292.074,124.6 293.477,123.4 293.876,123.4 293.876,122.8 294.478,122.2 294.478,121.8 295.077,121.8 
			295.879,120.6 296.479,120.6 296.88,120.2 296.88,119.6 297.881,118.6 298.481,118.6 298.481,118 298.882,118 299.482,117.4 
			300.083,117.4 		"/>
		<path d="M266.045,117.4l0.602,0.6h3.403l0.4-0.6
			l0.601,0.6l1.001-0.2l1.401-0.4v1.2h0.601l0.4,0.4h0.601v-0.4h0.4V118c0.802,1,1.603,2,2.203,3.2l0.601,1.8l0.201,1h0.6v0.6
			l0.802,1.2l1.2,1.6h0.401"/>
		<polyline points="395.189,115.2 395.189,113.6 
			396.592,111.8 396.592,111.4 396.19,111.4 395.591,109.2 394.789,108.6 394.789,107 394.188,106.4 394.188,104.2 392.587,102.6 		
			"/>
		<polyline points="269.448,133.8 270.45,133.2 
			271.051,132.8 272.652,132.8 273.053,132.2 274.454,131.8 275.455,131.6 276.456,130.6 277.058,130.6 277.058,130 278.059,130 
			279.461,128.4 280.462,128.4 281.062,127.8 281.463,127.8 		"/>
		<polyline points="266.045,117.4 266.045,118 
			266.646,118.6 266.646,119.6 267.046,121.2 267.046,122.8 267.647,123.4 267.848,125 268.047,126.8 268.047,127.8 268.447,128.4 
			268.047,129 268.047,129.6 268.447,130 268.447,131.2 269.049,131.6 269.049,132.8 269.448,133.2 269.448,133.8 		"/>
		<path d="M335.723,127.4l-1.2-0.8l-2.203-2.6l-1.001-1.6
			l-1.001-1.2l-0.2-4.8c0-2-0.2-4-0.4-6.2l-1.001-3.2l-0.4-0.6v-1l-1.401-2.4"/>
		<polyline points="328.916,128.4 331.919,128.4 
			331.919,127.8 335.723,127.8 		"/>
		<polyline points="335.723,127.8 337.726,128 
			339.327,128.2 340.328,128.4 340.729,127.8 341.329,127.8 341.931,127.4 342.33,127.4 342.33,126.8 345.334,126.8 346.335,125.6 
			347.336,125.6 347.336,125 348.337,125 348.738,124.6 349.338,124.6 349.939,124 350.34,124 350.34,123.4 350.74,123.4 
			351.341,122.8 351.742,122.8 352.342,122.2 352.743,122.2 352.743,121.8 353.343,121.8 353.343,121.2 		"/>
		<polyline points="256.034,138.8 256.635,138.2 
			258.036,137.8 258.437,137.8 259.037,137.2 261.04,137.2 262.642,136 263.442,135 264.043,135 264.644,134.4 266.045,134.4 
			267.647,134 269.049,133.8 269.448,133.8 		"/>
		<path d="M295.479,135.6l1.401-1.2h0.601
			c0.801-2,1.401-4,2.002-6.2c0.401-1.8,0.601-3.6,0.601-5.4V118v-0.6"/>
		<polyline points="256.034,138.8 255.033,138.8 
			253.029,139.8 252.631,141 251.629,141.4 		"/>
		<polyline points="251.629,141.4 251.027,142 
			248.024,142 247.425,141.6 245.623,140.6 245.222,140.4 244.622,139.8 244.421,138.2 243.42,135 241.418,131.8 240.216,130 
			239.616,127.8 237.213,125 		"/>
		<polyline points="397.593,122.8 397.191,122.2 
			396.19,121.2 396.19,120.2 395.591,119.6 395.591,115.8 395.189,115.2 		"/>
		<polyline points="295.479,135.6 295.879,136 
			295.879,135.6 297.48,136.2 297.881,136.6 298.481,136.6 298.882,137.2 299.482,137.2 300.083,137.8 300.885,137.8 300.885,137.2 
			301.485,137.2 301.886,136.6 304.89,136.6 305.489,136 306.49,136 307.491,135 307.893,135 307.893,134.4 309.895,134.4 
			310.294,133.8 311.496,133.8 311.897,133.2 317.503,133.2 317.904,132.8 318.905,132.8 320.506,131.8 321.308,131.6 
			322.909,131.6 322.909,131.2 323.91,131.2 324.311,130.6 325.312,130.6 325.913,130 326.914,130 327.514,129.6 327.514,129 
			327.915,129 327.915,128.4 328.916,128.4 		"/>
		<path d="M400.596,123.4l2.003-2.2l2.202-2.2l0.399-0.4
			l6.408-2.2l0.6-1.8l1.001-2l4.005-4l0.803-0.4l1.801-2.8l4.205-6l1.001-0.6c0.601-0.6,1.002-1.4,1.201-2.4
			c0.601-0.8,0.802-1.6,1.001-2.6"/>
		<polyline points="400.596,123.4 398.192,123.4 
			397.593,122.8 		"/>
		<polyline points="290.071,139.8 290.473,139.4 
			290.873,138.2 290.873,137.8 295.479,135.6 		"/>
		<polyline points="281.463,127.8 282.062,128.4 
			282.464,128.4 284.065,130 284.065,132.2 285.066,133.8 285.867,135 287.068,136 287.87,137.2 288.471,137.2 288.471,137.8 
			289.07,137.8 289.07,138.8 290.071,139.8 		"/>
		<path d="M227.603,147l1.601-0.8l3.003-0.8l0.401-0.6
			l1.601-2.8v-0.6h0.401l0.399-3.6l0.602-7.6c0.201-1.4,0.6-2.6,1.601-4V125"/>
		<polyline points="227.603,147 227.001,137.8 
			226.602,135.6 224.599,131.6 222.196,126.8 219.393,123.8 217.591,121.6 212.585,116.2 208.581,111.4 208.18,110.8 208.18,107.6 
			207.78,107 207.979,105.8 208.381,104.4 209.181,102 209.181,101.4 210.183,100.4 210.583,99.8 211.184,98.8 		"/>
		<polyline points="269.448,133.8 269.448,135 
			269.049,135.6 269.049,138.2 269.448,139.8 269.448,141 269.448,144.2 269.049,144.2 269.448,144.8 269.448,146.6 270.05,147 
			270.05,147.6 		"/>
		<polyline points="270.05,147.6 257.636,138.8 
			256.034,138.8 		"/>
		<polyline points="240.617,156.4 240.617,155.8 
			241.017,155.8 241.017,155.2 242.218,155.2 242.218,154.8 242.62,154.8 242.62,153.6 243.019,153 243.019,152.4 243.621,152.4 
			243.621,151.4 244.02,151.4 244.02,150.4 244.622,150.4 244.622,149.8 245.222,149.8 245.222,149.2 245.623,148.8 246.022,148.8 
			246.022,148.2 247.023,148.2 247.625,147.6 248.024,147.6 249.627,146.6 250.228,146.6 251.027,145.4 251.229,143.2 
			251.629,141.4 		"/>
		<polyline points="70.626,165.2 70.426,163 69.625,160.2 
			70.025,153.6 70.025,149.2 70.226,146.6 70.426,138.8 70.827,132.8 71.027,131.2 		"/>
		<polyline points="285.066,160.2 286.268,157.4 
			286.469,155.8 285.867,155.2 287.068,150.8 287.87,148.8 287.87,147 289.472,145.4 290.071,139.8 		"/>
		<polyline points="285.066,160.2 282.664,157.8 
			279.66,155.6 275.856,152.6 272.052,149.2 270.05,147.6 		"/>
		<path d="M227.603,147c0.2,2.2,0.2,4.4,0,6.6
			c0,1.2-0.201,2.2-0.602,3.2c-0.6,1.4-1.201,2.6-1.801,3.8v5.2l-0.601,0.4"/>
		<polyline points="285.066,160.6 284.466,161.2 
			284.065,162.4 		"/>
		<polyline points="285.867,162.4 285.066,161.2 
			285.066,160.6 		"/>
		<polyline points="70.626,165.2 75.632,165.2 
			76.032,165.8 76.633,166.2 76.633,166.8 79.036,169.6 79.036,170 80.037,170.2 83.441,170.6 87.645,170.6 92.05,170.6 
			92.05,171.6 94.053,171.6 94.453,172.2 97.457,172.2 97.457,171.6 98.458,171.6 99.459,172.8 		"/>
		<polyline points="285.066,163 284.466,163 
			284.065,162.4 		"/>
		<polyline points="233.609,168.4 234.611,168 
			234.611,167.4 235.21,166.8 235.612,166.2 235.612,164.6 236.011,164 236.011,161.8 236.613,161.2 236.613,160.6 237.213,160.6 
			238.013,159 238.615,159 238.615,158.6 239.215,158.6 239.215,158 239.616,158 240.216,157.4 240.216,157 240.617,157 
			240.617,156.4 		"/>
		<polyline points="224.599,166.2 227.202,168.4 
			227.603,168.4 227.603,169 232.608,169 233.008,168.4 233.609,168.4 		"/>
		<path d="M397.593,122.8l-2.002,1.6
			c-1.202,1-2.403,1.8-3.805,2.4l-2.003,1.6h-0.601l-3.003,1.6l-4.005,2.4l-0.4,0.4h-0.601v0.4l-3.403,2.8l-2.002,1.2h-0.602v0.6
			l-3.403,2.6l-1.001,1h-0.601l-2.604,3c-2.203,2.2-4.405,4.2-6.807,6l-3.405,2.6h-1.001l-1.001,1.2l-0.399,0.6v1"/>
		<polyline points="441.441,141.4 441.042,141.4 
			437.037,141.8 433.633,142.6 428.027,143.8 427.626,144.2 426.625,144.2 		"/>
		<path d="M343.332,159.6l-1.202-1.8l-3.804-4.8h-0.601
			l-0.801-0.6l-1.602-3.2l-0.4-0.4v-0.6c1.001-1.4,1.802-3,2.603-4.6c0.2-0.4,0.2-1,0.2-1.6h-0.801l-0.601-4.2v-4l-0.201-4.8
			l-0.4-1.2"/>
		<polyline points="426.625,144.2 426.025,144.8 
			421.619,144.2 418.616,144.2 418.017,144.2 418.017,144.8 416.213,145.4 413.209,148.2 411.008,150.8 409.205,152.4 
			406.603,154.8 		"/>
		<path d="M400.596,123.4l1.202,1.6l2.803,3l1.001,1.6v2
			l-0.401,0.6l0.603,3.4c0.199,1.4,0.199,2.8,0,4.2v4l0.398,4.4v4.8l0.401,0.6v1.2"/>
		<path d="M99.459,172.8l-1.001,0.6v0.6h-2.002l-1.602,1.4
			c-1.201,1.2-2.603,2.2-4.004,3.2c-2.203,1.6-4.405,3-7.008,4c-2.402,1-4.806,1.8-7.208,2.4l-2.002,0.4l-0.601,1.2l-5.806,1"/>
		<path d="M68.224,187.6v-5l0.6-3.2l0.601-2.8
			c0.2-1.8,0.4-3.6,0.6-5.4l0.601-6"/>
		<polyline points="114.476,190.8 113.875,190.8 
			113.274,189.2 112.474,187.8 111.473,186.6 111.473,186 110.872,186 110.872,185 110.671,182.6 110.471,181 110.07,181 
			109.47,180.4 107.468,179.8 107.067,179.4 106.466,179.4 105.465,178.2 105.465,177.8 105.064,177.8 105.064,177.2 104.464,177.2 
			104.464,176.2 103.864,176.2 103.864,175.6 103.463,175.6 103.463,175 102.062,175 101.06,174 99.459,172.8 		"/>
		<polyline points="68.224,187.6 67.623,187.6 
			67.022,188.2 67.022,190.4 66.622,190.8 		"/>
		<polyline points="98.057,192.6 103.062,192.2 
			109.871,191.6 111.473,190.8 114.476,190.8 		"/>
		<polyline points="66.622,190.8 70.025,192.6 
			71.627,193.6 88.046,193.2 93.051,192.6 94.053,193.2 97.457,192.6 98.057,192.6 		"/>
		<path d="M408.605,170h0.6l1.402-1l1.601-3.8l0.803-1.2
			l1.199-1l-0.198-0.6l-0.401-1.8l1.802-3.2l1.402-2c0.6-1,1.4-2,2.401-2.8l2.003-1.6l2.402-0.6l0.801-1.8l0.602-2.6l1.602-1.2v-0.6
			"/>
		<line x1="221.194" y1="194.8" x2="220.595" y2="194.8"/>
		<path d="M11.16,196.2l3.003,0.2h1.601l6.007-0.6h1.001
			v-2.2l2.402-1.6l2.603-0.6l2.002-0.4l1.802-0.2l1.602-1l3.003-0.4l2.002-0.2l2.002-0.4l1.001,0.4l8.009-0.4h2.402l4.405,0.4
			c0.6,0.4,1.201,0.6,1.802,0.8c1.602,0.6,3.204,1.2,4.806,1.4l3.403-0.6h0.601"/>
		<path d="M223.598,195.8l1.602-1.6l5.407-4.2l4.004-3
			l1.001-1v-1.6l2.401-1.4l3.204-1.8l2.802-1.4l1.604-0.2l0.399-0.2l3.604-2.2l3.402-1.6l3.405-1.4l4.004-2l2.604-0.4l2.002-0.2
			h2.002l4.005-3.2l2.002-1.2l2.804-0.8c1.001-0.2,1.802-0.8,2.604-1.4l0.6-0.4h3.003l0.401-0.6l0.2-0.6l0.2-1h1.201"/>
		<polyline points="223.598,195.8 223.598,195.4 
			223.197,195.4 222.797,194.8 221.194,194.8 		"/>
		<path d="M224.599,166.2v2.2l-1.802,2.8v3.2l-1.001,1.8
			l-4.605,9.2l-2.002,3.8l1.802,5.4c0.2,0.6,0.601,1.2,1.201,1.8"/>
		<polyline points="221.194,196.4 221.596,195.8 
			223.598,195.8 		"/>
		<polyline points="221.194,196.4 220.595,195.4 
			221.194,194.8 		"/>
		<polyline points="218.191,196.4 219.192,195.8 
			220.193,196.4 221.194,196.4 		"/>
		<polyline points="221.194,198 222.196,198 
			223.598,197.4 224.198,197 223.598,195.8 		"/>
		<line x1="221.194" y1="198" x2="221.194" y2="196.4"/>
		<polyline points="218.191,196.4 219.594,197 
			220.193,197 220.193,198 221.194,198 		"/>
		<path d="M218.191,196.4h-4.004
			c-1.602,0.2-3.204,0.8-4.805,1.6l-5.807,3c-3.404,1.8-6.807,3.6-10.412,5c-1.001,0.6-2.202,0.8-3.403,1l-2.403,0.6l-3.003,0.8
			l-4.605,0.2l-5.005,0.4"/>
		<polyline points="114.476,190.8 118.88,190.8 
			119.481,191.4 121.884,192 122.484,192 123.085,191.4 124.287,192.2 126.489,193.6 127.89,193.2 128.891,191.4 131.294,190.8 
			133.897,190.2 141.306,189.8 147.312,190.6 147.913,190.8 150.315,191.8 152.518,193 155.321,194.2 157.725,195.4 158.726,196.4 
			162.329,196.4 165.533,198.2 168.336,198.6 169.738,199.6 171.339,200.2 171.74,202.4 171.74,205.8 173.341,206.4 173.341,208 
			174.744,209 		"/>
		<polyline points="434.034,195.8 430.629,196.4 
			426.625,197.2 422.221,197.6 418.616,198.4 416.814,199.4 413.011,203 412.208,203 		"/>
		<polyline points="98.057,192.6 98.057,196.4 98.458,197 
			99.058,197.4 99.058,199.6 99.459,200.2 99.459,201.4 100.059,201.8 100.059,204.6 100.46,205.2 101.06,205.8 101.06,207.4 
			101.461,207.4 101.461,209 102.062,209 102.062,209.6 102.462,209.6 102.462,211.2 102.062,212.8 102.062,213.4 102.462,213.4 
			103.062,214 103.062,214.6 102.462,215 103.062,215.6 103.062,216.6 102.462,217.2 102.462,218.2 103.062,218.8 103.463,219.4 
			103.463,221.6 103.062,222.2 103.062,225 103.463,225.6 103.864,225.6 104.464,226 104.464,226.6 105.866,228.2 105.866,229.8 
			106.466,229.8 106.466,230.4 107.067,231 107.067,232.6 107.468,233.2 107.468,234.8 108.068,235.4 108.068,236 		"/>
		<polyline points="287.068,241.4 289.07,240.8 
			290.473,239.8 291.474,238.6 		"/>
		<polyline points="287.068,241.4 287.068,240.8 
			287.47,239.2 289.07,237 290.071,236 290.473,235.4 290.873,235.4 		"/>
		<path d="M66.622,190.8v8.8l0.4,0.6l1.202,0.6l0.2,2.2
			l0.4,2.6l2.203,6.2l2.203,6.4l0.4,1.8l0.4,0.6l-0.4,1.6c-0.2,3.4-0.4,6.6-0.4,9.8l0.2,5l0.2,2.8l-0.4,0.4l-0.201,1.8l-0.4,3.8
			l-0.2,5l0.2,3.8"/>
		<polyline points="72.628,254.6 70.025,260 69.625,262.2 
			69.625,263.4 		"/>
		<path d="M174.744,209l0.6,0.6l-0.6,0.4v1.2h-0.401
			l-0.6,0.6h-0.802l-4.604,3.2l-1.402,1.2l-3.604,4.4h-0.4l-4.204,5.4l-0.401,0.6c-0.201,1-0.401,2-1.001,2.8
			c-1.602,2.6-3.405,4.8-5.407,7l-2.603,2.8l-3.604,2.6c-0.401,0.4-0.802,0.6-1.402,0.8l-0.4,1.6l-2.002,0.6l-1.001,0.4l-0.4,1.2
			l-1.603,0.6l-1.001,0.4l-3.403-0.4l-3.605-0.2l-1.401,1.6l-4.605,3.2l-1.802,1.4l-4.205,2.6l-0.4,0.2l-0.401,0.4l-0.601,0.6
			l-8.009,0.2l-3.604,0.4l-0.802,0.4l-8.609-0.4h-0.801L91.85,261c-0.801,1-1.802,1.8-2.803,2.4h-1.001l-4.005,2.6"/>
		<polyline points="80.037,267.2 81.038,266.6 
			83.04,266.6 84.041,266 		"/>
		<polyline points="72.628,254.6 73.229,255.2 
			75.031,256.8 75.632,259 76.032,260 77.835,262.4 78.436,264.4 78.436,265.6 80.037,266.6 80.037,267.2 		"/>
		<polyline points="80.037,267.2 74.631,267.2 
			71.627,267.6 69.024,267.6 		"/>
		<polyline points="69.625,263.4 69.024,265 69.024,267.2 
					"/>
		<path d="M66.622,267.6l1.001,0.6
			c0.4-0.2,0.801-0.4,1.001-0.6h0.4"/>
		<polyline points="80.037,267.6 79.636,268.2 
			80.037,269.4 80.037,271 		"/>
		<path d="M287.068,241.4l-2.202,2.6
			c-0.801,0.8-1.803,1.4-3.003,2l-1.803,0.4l-0.6,0.4l-2.804,0.4l-1.401,1l-3.805,5.2l-2.402,3l-3.004,4.2l-3.403,5l-3.204,3.8
			l-1.001,0.8c-1.001,0.6-2.203,1-3.403,1.4l-0.4,1.2h-2.002l-0.603,0.4h-0.399"/>
		<path d="M221.194,198v0.6l0.401,0.4l0.6,3.4l0.601,2.8
			c0.601,3.6,1.201,7.2,1.401,11l0.601,6.6l0.4,3.2l1.402,6l0.399,1.8l1.001,4.8l0.401,5.6l-0.401,4.8l-1.4,5l-1.001,0.6v3.2
			l-1.001,1.6c0,2.2-0.201,4.2-0.401,6l-1.202,5.8l-0.2,1.6l0.4,0.4l-0.801,2.8l-0.201,1l-1.001,0.6"/>
		<path d="M84.041,266v0.6l3.004,0.6l1.001,1h2.002
			l0.601,0.6l1.802,0.8l5.005,2l3.003,1.2l6.207,2.4l3.805,0.8l4.004,0.4l4.005,0.2l3.403,0.2l3.003-0.4l6.407-1.2
			c1.402-0.2,2.803-0.2,4.205,0l4.404,0.4l1.001-0.2l0.401,0.6v0.6c1.601-0.6,3.204-1.4,4.604-2.2l1.603-1l1.401-0.4l4.004-1.2
			h1.402l3.604,0.2l7.409,0.2l6.407,0.2l4.005,0.2l3.604,0.2l1.401,0.2l6.607,0.6l3.804,0.4l8.009,0.8l1.201,0.2l0.401,0.4
			l4.404,1.6h1.001l1.201-0.8l1.202-0.6l4.604-0.2l3.003-0.4h1.603l2.402,1.6l1.001,1"/>
		<polyline points="251.629,272.8 251.027,272.2 
			246.022,273 241.618,273.8 241.017,273.8 240.617,274.4 236.212,274.6 231.607,275.6 227.202,276.4 225.2,276.8 222.196,277.6 
			221.194,277.6 		"/>
		<polyline points="80.037,271 79.437,275 78.635,279.2 
			78.034,283.2 74.03,286.8 		"/>
		<path d="M69.024,267.6v6.8l1.001,1.6l2.002,2.6
			c0.801,2.801,1.402,5.601,2.002,8.2"/>
		<path d="M15.565,274.2l1.202-0.6l0.4-0.4
			c0.601,0.8,1.401,1.2,2.203,1.4l5.406,1.6l8.409,1.4l3.404-0.6c1.001-0.2,2.202-0.8,3.204-1.4l3.404-1.2h0.4v-0.6l2.203,0.6
			l3.804-2c0.801-0.2,1.602-0.8,2.603-1.4l5.606-3l1.802-0.4l1.402-0.4l4.605,1l0.4-0.6h0.601"/>
		<path d="M221.194,277.6l-2.002,5.6l-1.201,4.399
			l-0.801,4.4l-0.4,4.8v2.8c0.2,2.4,0.2,4.801,0.2,7l-0.2,6.801v4.8l0.6,4.399l0.801,4.4v0.6"/>
		<polyline points="218.191,327.6 225.6,327.6 
			227.202,328.6 		"/>
		<polyline points="204.777,330.8 208.18,329.2 
			210.183,328.6 218.191,327.6 		"/>
		<path d="M251.629,273.2l-0.602,2.2l-0.8,1.6
			c0,1.4-0.201,2.6-0.601,3.8c-0.401,1.8-1.001,3.4-1.603,5l-2.002,4.4l0.602,0.6v0.601l-0.602,0.6h-0.801v1.6h-1.202l-1.4,3.801
			h-0.401v3.199l-0.6,0.601v2.2l0.6,0.6l-0.399,2l-1.202,5.6l-1.402,5l-0.8,2.801l-1.601,5.399l-0.802,2.2l-0.399,0.6l-0.201,1
			l-0.201,1.2v1.601"/>
		<polyline points="227.202,328.6 229.204,329.8 
			234.209,331.4 235.21,331.4 		"/>
		<path d="M109.27,341.4l-0.201-1.2l-0.2-4l-0.4-5.8
			l-0.401-4l-2.202-2.2c-1.803-1.8-3.604-4-5.406-6.4c-1.001-1.6-1.802-3.399-2.403-5.2l-1.001-3.6c-0.2-1.6-0.8-3.2-1.401-4.6
			l-1.402-3.801l-1.601-4.199c-0.601-1.4-1.602-2.601-2.604-3.801l-1.601-1.199V289.6l-0.401-2.199l-0.401-2.2l-1.201-3.8
			c-0.601-0.2-1.001-0.801-1.602-1.4c-0.601-0.8-1.202-1.8-1.401-3l-1.001-6c0-0.2-0.201-0.6-0.401-1l-1.001,1h-1.001"/>
		<path d="M59.013,337.4l0.601-1.601l0.801-1.8l0.2-1.4
			V331.4l-0.4-0.601V326.4h0.4l2.203-5.4l1.201-3.4l1.001-2.199l2.603-1.601l3.003-6.6l2.002-4.4l0.4-1.6
			c0.201-1.2,0.401-2.4,0.401-3.8v-5l-0.2-2.801l0.8-2.199V286.8"/>
		<path d="M231.206,42.8l1.402-0.8l3.003-2.4l0.6-2.8
			l1.402-5l2.002-2.8v-0.4l2.002-2.8l2.803-4c0.6-0.6,1.001-1.2,1.202-2l-0.401-5"/>
		<polyline points="231.607,45 231.206,44.4 231.206,42.8 
					"/>
		<path d="M246.022,52l1.603-2l1.802-9.4
			c0.401-1.8,0.6-3.8,0.6-5.6l0.201-1.6l0.4-2.6h1.001V29l0.399-1l0.201-1.8l0.8-2l-0.398-0.6l-0.603-0.6l0.201-2.2l0.8-4.4
			l0.401-2.2l0.201-2.6"/>
		<polyline points="246.022,52 240.617,50.4 238.615,50 
			237.213,48.8 233.609,46.6 232.207,45.4 231.607,45.4 		"/>
		<line x1="246.022" y1="53.2" x2="246.022" y2="52"/>
		<polyline points="366.357,12 365.757,12.6 365.155,13.2 
			363.153,13.6 360.551,17.4 357.548,20.6 356.146,22.4 354.945,24.2 352.743,27.8 350.34,31.8 350.34,33.4 348.738,35.6 
			348.738,39.6 348.337,40 348.337,42.2 348.738,45 348.337,45.4 		"/>
		<polyline points="376.168,40 374.768,40 373.766,41.2 
			370.763,41.8 370.162,41.8 367.76,43.4 360.149,44.4 353.744,45.6 351.742,46 349.939,46 348.337,45.4 		"/>
		<path d="M326.312,51.6c1.002-0.2,2.003-0.4,3.004-0.8
			l1.602-0.8l2.002-0.2l2.003-0.4l0.4-0.6l0.399-0.6c2.003-0.2,3.806-0.6,5.606-1.2l2.604-0.8l3.805-0.8h0.6"/>
		<path d="M331.919,7.4l0.2,7.4c0,1-0.2,1.8-0.4,2.6
			c-0.199,1.2-0.801,2.2-1.602,3.2l-2.604,3.6l-1.201,0.4l-0.399,2.2v0.6l-1.002,0.6l-0.2,1.6v2.8l0.4,4.4l0.2,1.6l-0.4,0.6
			l-0.601,3.8l0.4,1.6c0,0.4-0.2,0.8-0.4,1l1.401,3.4l0.601,2.2v0.6"/>
		<path d="M288.471,58.2l2.002-5l1.602-1.2h3.003v-0.4
			l0.401-0.6l0.4-0.4l2.603-0.6c0.201-0.6,0.201-1.2,0.201-1.8l-0.201-4.8l-0.2-8.4l0.2-2l1.602-3.4V28l0.4-0.6l0.401-0.6l-0.401-1
			l1.602-4.4l1.402-2.6l1.001-1.2v-2.4V14"/>
		<path d="M288.471,58.2l-0.601-0.6
			c-1.001-0.2-1.803-0.6-2.804-1.2l-0.601-0.4v-1.2l-2.403-2.8h-0.6c-0.2-0.4-0.601-1-1.001-1.6l-1.001-2.6
			c-1.202-1-2.403-2.2-3.805-3.6l-2.203-2.4v-0.6l-0.801-1.2c-1.802-2.4-3.604-4.8-5.206-7.4c-1.2-2-2.202-4.2-3.003-6.4l-1.001-3.6
			l-0.801-4l-0.401-2.8v-1"/>
		<polyline points="246.022,52 248.024,52.8 249.025,53.2 
			256.034,52.2 257.636,52 258.036,52.6 259.037,52.6 259.037,52 262.642,51.6 264.644,51.6 265.044,51 269.049,51 273.053,51.6 
			275.055,52 275.455,53.2 282.464,56.4 285.467,57.4 288.471,58.2 		"/>
		<polyline points="288.471,58.2 291.474,57.4 
			295.479,56.6 300.483,55.4 311.897,53.4 313.298,53.2 313.899,53.6 314.499,54.2 320.907,53.2 322.508,52.6 326.312,51.6 		"/>
		<polyline points="221.194,64.6 223.598,63.8 228.604,63 
			232.608,62.6 232.608,61.4 233.008,61 235.21,61 237.213,58.8 237.213,57.6 240.617,56 242.218,53.6 246.022,53.2 		"/>
		<path d="M221.194,64.2l0.401-0.6v-3.8l1.201-0.6
			c0.601-1.2,1.201-2.4,1.802-3.8v-1.8h1.602l2.002-2.6v-0.6l3.405-5"/>
		<polyline points="326.312,51.6 326.112,56 325.913,58.8 
			325.913,59.8 324.911,61 324.711,62 324.511,64.6 324.311,66.4 323.91,67 323.31,67.4 322.309,71.8 321.908,72.8 		"/>
		<polyline points="288.471,58.2 292.074,61 292.475,61.4 
			292.475,62 296.279,64.8 301.886,69.2 304.488,69.6 309.494,70 312.497,69.6 313.298,70 314.499,70.2 314.9,69.6 315.901,69.6 
			316.502,70.8 317.503,70.8 317.904,71.2 318.303,71.2 318.905,71.8 319.305,72 321.908,72.8 		"/>
		<path d="M348.337,45.4l-0.6,2.8v0.6l-0.401,0.6l-0.6,0.6
			h-1.402l-4.605,4.2c-1.802,1.8-3.604,3.6-5.606,5.2c-0.801,0.6-1.802,1.2-2.803,1.6l-1.001,1.6l-0.4,0.4l-3.003,1.6h-1.001
			l-1.001,2.8l-1.402,3.4l-0.2,0.4l-1.001,1.2h-0.4l-0.401,0.4h-0.6"/>
		<path d="M288.471,58.2l-1.001,1.4l-3.404,3l-4.604,3.2
			c-1.001,0.6-2.002,1-3.005,1.4l-2.803,1.2l-1.602,1.2l-3.003,0.6l-0.602,0.6h-0.8l-0.602,0.4l-2.402-0.2l-1.201-0.2l-1.802,0.6
			l-3.604,1.4h-1.001l-3.403,2.4l-0.603,1l-7.007,4.4l-3.403,2.2"/>
		<polyline points="242.62,82.8 244.221,79.6 244.622,79 
			245.222,75.2 245.623,73.4 246.022,73.4 246.624,72.4 247.023,71.8 246.624,68.6 247.023,64.6 247.023,59.8 246.624,59.2 
			246.022,53.2 		"/>
		<polyline points="321.908,72.8 321.908,74 321.308,75.2 
			320.307,75.6 320.105,78 320.307,80.6 		"/>
		<path d="M242.62,82.8c-2.404,1.4-5.006,2.4-7.61,3.4
			c-0.6,0.2-1.4,0.4-2.401,0.4l-2.403,1.8l-3.003,2l-1.001,0.4l-4.005,2.4h-1.601l-1.001,1.2h-2.403"/>
		<polyline points="217.19,94.4 218.792,90.6 
			220.193,87.8 219.993,85.6 220.595,82.2 221.194,80.2 221.596,79.6 221.194,70.2 221.194,64.6 		"/>
		<polyline points="217.19,94.4 217.19,95.4 213.186,97.6 
			213.186,98.2 		"/>
		<path d="M376.168,40l1.201,1.2v4.2l-0.6,0.6l1.601,2.2
			l0.802,0.6l0.601,2.8l0.801,4.4v3.2c0,0.6-0.2,1.2-0.6,1.8l-0.802,2l0.601,2.2l-2.002,4.4l-1.001,2.8l1.001,2.2l0.4,0.6l0.601,0.4
			h0.4l0.601,5l1.001,3.8l0.4,0.6"/>
		<line x1="381.174" y1="85" x2="381.174" y2="86.2"/>
		<path d="M381.174,86.2h-1.001v0.4l-1.401-0.6l-2.604-1.6
			c-0.199-0.2-0.601-0.4-1.001-0.6l-2.804,1.8l-3.003,0.8l-3.204,1.2c-1.199,0.6-2.401,1-3.804,1.4l-0.6,0.4"/>
		<path d="M236.613,104.8l-1.001-8.2v-1.8
			c2.002-2.6,3.804-5.6,5.605-8.6c0.602-1,1.202-2,1.402-3.4"/>
		<polyline points="213.186,98.2 216.189,99 218.191,99.6 
			221.194,100.4 223.598,101.8 225.2,103 228.604,103.6 233.008,103.8 235.21,104.2 236.613,104.8 		"/>
		<path d="M300.483,101l-0.4-1.6v-2.2l-1.201-1.8l-1.2-7
			c-0.201-0.6-0.401-1.2-0.802-1.8l0.601-0.4v-3.4l-1.001-1v-1.6l-1.001-0.6l-1.603-2.2l-0.199-2.8l-0.2-4.4v-1l-1.402-1.2
			l-3.004-7.6l-0.399-1.6l-0.2-0.6"/>
		<path d="M300.885,101v-0.6l1.001-1h0.601l2.602-2.2
			l3.004-2.6c0.802-1,1.402-2,1.603-3l0.2-1.6l1.602-2.2h1.402l2.202-1.6l1.401-0.6l3.805-5"/>
		<line x1="300.483" y1="101" x2="300.885" y2="101"/>
		<polyline points="265.044,107 267.046,106.6 
			274.454,105.4 278.059,104.6 282.062,103.8 285.867,103 290.071,102.6 292.475,102.2 294.478,102 296.88,100.4 297.48,99.8 
			298.481,99.8 298.481,99.4 299.482,100.2 300.483,101 		"/>
		<path d="M236.613,104.8l2.002,1.6
			c0.399-0.2,0.8-0.4,1.001-0.6h7.407l8.61,0.4c0.6,0.2,1.001,0.4,1.401,0.8l3.403,0.2l1.202,0.4l3.403-0.6"/>
		<path d="M326.914,103l-2.604-4.2l-1.001-1.6v-1.8
			l-0.4-3.8l-1.001-1.6l-0.2-2.8c-0.201-1.6-0.602-3.2-1.001-5l-0.4-1.6"/>
		<path d="M361.753,89.4l-1.001-0.6l-2.403,1.2l-1.002-0.6
			l-3.603,2.2L350.34,92h-1.002c-1.001,0.6-2.002,1.2-3.003,1.8l-0.6,2.2l-0.401,0.6h-1.401c-0.601,0.6-1.401,1-2.203,1.4
			l-2.402,1.4l-4.805,2.8l-1.202,0.8"/>
		<polyline points="333.32,103 332.319,103.6 
			331.318,103.6 329.917,103 327.915,102.6 326.914,103 		"/>
		<line x1="286.469" y1="162.4" x2="285.867" y2="162.4"/>
		<polyline points="285.867,162.4 285.867,163 
			285.066,163 		"/>
		<polyline points="343.332,159.6 344.333,159.6 
			344.934,158.6 347.737,158.4 352.342,158 354.945,155.8 		"/>
		<polyline points="337.325,164 337.726,163.4 
			340.729,161.2 342.731,160.2 343.332,159.6 		"/>
		<polyline points="286.469,162.4 287.87,162.4 
			290.071,160.6 295.077,160.4 296.88,159.6 300.083,160.2 300.885,159.6 301.886,159.2 302.486,159 303.889,160.2 305.489,160.2 
			305.891,160.6 307.893,160.6 308.894,159.6 311.897,159.2 313.298,159 315.3,159 316.902,160.2 320.907,162.2 323.31,163.2 
			323.91,163.4 323.91,164 324.911,165.2 325.512,164.8 326.312,164 327.514,164.6 328.916,163.8 329.316,163.4 330.918,163.6 
			333.922,164.2 337.325,164 		"/>
		<polyline points="372.363,168 374.166,167.2 
			374.768,166.8 377.17,165.6 377.771,165.2 382.175,163.6 384.178,163 386.18,161.2 388.782,160.6 390.585,160.2 392.587,159.8 
			395.189,159.6 399.193,159 400.195,158 404.801,155.8 406.603,154.8 		"/>
		<polyline points="354.945,155.8 356.747,157.4 
			358.749,159 359.35,161.2 360.149,161.2 361.352,162.4 362.353,163.4 362.754,163.4 363.153,164 363.153,165.2 363.755,165.8 
			364.354,166.2 363.755,166.8 363.755,167.4 364.957,168.4 365.757,169 369.762,168.2 372.363,168 		"/>
		<polyline points="408.605,170 407.805,165.8 
			407.403,161.2 407.203,158.6 406.603,154.8 		"/>
		<path d="M320.307,190.4h0.601l0.4-0.6l0.601-2.2
			l1.401-0.4l0.601-1.2c0.801-0.6,1.602-1.2,2.202-2c1.202-1.6,2.203-3.4,3.204-5.2l2.002-3.8l3.804-7l2.203-3.4V164"/>
		<polyline points="315.3,192 315.901,192 316.502,191.4 
			316.502,190.8 317.503,189.8 317.904,190.4 318.303,189.8 319.305,190 320.307,190.4 		"/>
		<polyline points="315.3,192 314.499,192 314.499,191.4 
			313.899,190.8 310.294,190.4 309.895,190.4 308.894,188.2 307.893,187.6 307.893,186 307.491,186 306.892,185.4 306.49,185.4 
			305.489,183.8 301.886,179.4 301.485,178.8 300.885,178.8 298.882,177.2 298.481,177.2 293.876,171.2 291.273,168.2 287.068,164 
			286.469,163.4 286.469,162.4 		"/>
		<path d="M408.605,170l-0.401,0.6l-4.604,0.2l-3.004,0.4
			l-1.001,1.4c-1.001,1-2.002,1.6-3.003,2.2l-5.206,3.6l-3.805,2.6l-1.401,1.2"/>
		<polyline points="386.18,182.2 383.576,178 
			382.175,176.6 382.175,176.2 381.174,175 380.773,175 379.172,175.4 378.771,175.6 376.368,173.2 373.165,169 372.363,168 		"/>
		<path d="M412.208,203c-0.8-1.4-1.4-2.8-2.002-4.2
			l-1.201-4l-1.401-7.2l-0.601-7.2c0-0.8-0.199-1.6-0.4-2.6l1.802-5.6l0.201-1.6V170"/>
		<polyline points="408.605,205.2 409.205,204.6 
			410.206,204.2 410.607,203.6 411.608,203 412.208,203 		"/>
		<path d="M408.605,205.2c-0.801-1-1.603-1.8-2.604-2.4
			l-1.803-1l-4.004-1l-4.005-2.8l-1.401-1.6l-3.003-1.6l-1.201-0.6l-0.601-2.2l-1.803-5.4l-1.001-1.6l-0.2-1l-0.801-1.8"/>
		<path d="M341.329,223.8l0.602-2.2l1.401-1.6v-0.6
			l3.404-3.2v-0.6l1.2-1l3.806-2.2l1.001-1.2l2.202-0.6l5.006-5.2c2.401-2.2,5.006-4.2,7.607-6l3.004-2.2l2.803-1.8l1.802-1.2
			l3.004-5.4l2.002-1.2l1.001-0.4l0.601-1.2l3.404-2.8l1.001-1"/>
		<path d="M320.307,190.8l1.801,1.8
			c0.602,0.6,1.401,0.8,2.203,1l0.801,1.8l0.2,0.4v3.2l2.202,3.4h0.401l0.4,3.4v1.6l3.403,3.4l2.203,3.2l1.401,0.6l1.001,0.4
			l0.601,1.6l2.202,3l1.201,2l1.001,2.2"/>
		<path d="M292.475,235.4l0.4-1.6l1.001-0.6l0.602-1.2
			l1.001-0.4l2.002-2.4l0.4-1c1.201-1,2.202-2,3.203-3c1.402-1.6,2.805-3.4,3.806-5.2h0.6l1.402-2.8l-0.401-0.6v-0.4l5.006-9.8
			l0.401-0.6l-0.401-0.6l1.602-5.6l1.001-3.2l0.802-3.2l0.399-1.2"/>
		<polyline points="292.475,235.4 291.474,234.8 
			290.873,235.4 		"/>
		<path d="M285.066,163l0.801,0.4l-1.001,7.8v2.2v8.8
			l-0.4,5l0.801,3.6c0.2,1.2,0.4,2.4,0.4,3.4l-0.2,2.8v1.6l-0.4,0.4v0.6l0.2,1.2l0.2,1.6l1.002,1.8v1l-0.602,2.8l0.602,0.4
			l0.199,0.6l0.4,2.2l0.401,2.2l-0.401,0.6v1l0.802,1.6l0.199,1.2l0.401,2.2l0.6,2.8l-0.6,1.6l1.601,4.6l0.401,3l0.4,3.4"/>
		<polyline points="341.329,223.8 338.927,224 
			332.319,225.6 327.915,226.6 322.909,228 319.906,229 315.3,230.4 312.497,230.8 311.496,231 310.294,232 308.894,232 
			308.292,232.6 304.488,232.4 302.486,232.4 300.885,232.6 297.48,233.6 296.88,233.8 296.479,234.4 295.879,234.8 295.077,234.8 
			294.478,234.8 292.875,235.4 		"/>
		<path d="M408.605,205.2l-1.002,0.6l-1.001,1.4l-4.004,5
			c-1.402,1.8-3.004,3.4-4.605,4.8l-2.203,2c-1.401,1-2.803,2-4.204,2.6c-2.002,1-4.205,1.6-6.407,2l-3.804,1.2l-3.604,1.2
			l-4.605-0.4l-3.003-0.4l-7.009,0.4l-6.808,0.2l-4.004,0.2l-4.604-1.2l-3.404-0.4h-1.001l-0.601-0.6h-1.402"/>
		<polyline points="291.474,238.6 290.873,238.6 
			290.873,235.4 		"/>
		<path d="M434.034,195.8l-1.402,3.4l-2.203,5.8
			c-1.001,2.6-2.002,5-3.003,7.2l-2.803,5.6l-0.601,0.4l-0.602,2.8l-0.399,1.8"/>
		<path d="M423.021,222.8c-2.203-1.8-4.205-3.8-6.007-5.8
			c-1.402-1.4-2.805-3-4.004-4.6h-0.401l-0.401-0.6l-0.399-0.6l-1.603-2.8l-1.601-2v-0.6l0.399-0.4"/>
		<polyline points="332.319,243.6 332.319,243 
			333.721,239.8 334.321,237.6 334.321,236.4 334.923,236 335.523,233.8 337.525,230.6 339.928,227.6 340.328,227.6 341.329,223.8 
					"/>
		<path d="M355.746,244.2l-2.804-3
			c-1.001-0.8-1.803-1.8-2.402-2.8l-2.803-5.2l-1.402-2.8l-3.804-2.8l-1.202-1v-2.8"/>
		<polyline points="423.021,222.8 426.825,225.2 
			431.431,228.4 434.434,230.6 437.438,233.8 438.038,234.8 		"/>
		<path d="M333.922,262.8l0.399-0.6l-1.001-2.8h-0.4
			c-0.601-2.6-1.001-5.4-1.201-8.2l0.2-3.2l0.4-4.4"/>
		<path d="M304.488,267.2V266l-1.802-2l-2.403-3.6
			c-1.201-2-2.203-4.2-3.204-6.4l-0.199-0.4l-1.001-0.6l-2.402-6.2v-0.4l-1.002-0.6l-0.4-1.6V242l-0.2-0.6l-0.4-1.2v-1.6"/>
		<path d="M332.319,243.6l-3.204,4.2l-1.602,3h-0.6
			l-0.602,0.4c-0.601,1.8-1.401,3.6-2.402,5.2c-0.2,0.8-0.801,1.4-1.402,2l-3.603,3.4l-2.003,1.6l-4.405,1.4l-1.601,1.2l-2.604,0.6
			l-3.402,0.6h-0.401"/>
		<path d="M413.011,260l0.801-2.2l1.001-2l1.4-1.8l1.001-1
			l0.401-0.6v-6l1.601-2.2l0.2-2.6l0.802-3.6c1.001-3.8,1.803-7.6,2.402-11.4l0.401-3.8"/>
		<polyline points="416.614,259.4 415.612,260 
			413.011,260 		"/>
		<path d="M270.05,319.4l-0.602-0.601v-2.2l0.602-0.6
			l-0.602-1.6V313.8l1.002-1.6l4.004-2c1.402-0.601,2.604-1.4,3.805-2.2c1.401-1,2.604-2.2,3.804-3.6h0.802l3.003-2.601v-0.6
			l2.604-2.8c1.201-1,2.203-2.2,3.204-3.601c0.6-0.8,1.2-1.8,1.802-2.8l3.403-4l0.802-2.8l0.199-0.4v-1.6l1.001-1.2v-1.6
			l2.402-4.601l1.202-3c0.6-1.4,1.201-3,1.802-4.6l0.2-1"/>
		<polyline points="413.011,260 412.409,264 412.01,267.2 
			411.408,276 411.207,282 411.207,284.8 410.607,285.2 409.606,292 409.606,297.4 409.606,298.4 409.606,300.2 411.008,304 
			411.207,306 411.207,309.4 411.207,310 410.607,310 		"/>
		<polyline points="235.21,331.4 237.614,330.8 
			239.215,330.4 244.02,328.6 250.628,326.8 255.634,326.2 259.639,326.4 261.04,326.4 264.644,323.6 268.447,321 269.049,319.8 
			270.05,319.4 		"/>
		<polyline points="270.05,319.4 270.851,317.6 
			271.051,317 272.052,317 272.052,317.6 272.652,318.2 274.454,318.2 277.658,318 281.062,318.4 285.467,319.2 285.867,319.4 
			288.671,320.8 289.472,321 290.873,321 291.474,319.8 292.875,319.8 294.276,318.4 298.481,315.6 303.487,313.8 306.49,313.8 
			308.894,313.2 313.298,312.8 318.303,312 322.909,310.8 329.316,309.8 332.319,310 334.722,310.8 336.324,311.6 343.332,311.6 
			344.934,312.8 346.736,313.2 349.939,313.8 352.743,313.8 356.346,313.8 361.753,313.6 366.758,313.6 370.162,313.6 
			374.768,313.8 380.773,314 383.176,314.4 386.78,315.4 		"/>
		<polyline points="386.78,315.4 390.184,315.4 
			393.788,315 397.593,314 401.598,312.8 409.205,310.6 410.206,310.6 410.607,310 		"/>
		<polyline points="425.624,332.2 423.822,329.4 
			421.82,326.4 418.215,320.4 415.412,315.6 414.21,313.8 414.21,313.4 411.608,310.6 411.207,310 410.607,310 		"/>
		<polyline points="399.995,334.4 398.594,332.6 
			397.593,331 395.39,328 392.787,323.6 390.585,319.4 388.983,317.2 386.78,315.4 		"/>
		<path d="M211.184,98.8l-1.401,0.6
			c-0.602,0.6-1.402,1-2.203,1.2l-3.404,1.4c-1.001,0.4-2.002,0.6-3.003,0.8l-2.002,0.2l-0.4,1.2c-0.2,0.2-0.601,0.4-1.001,0.6
			l-1.201,2l-2.203,2.4l-3.404,3.6c-0.801,1-1.802,1.8-2.803,2.4l-0.4,1.2l-3.404,1l-2.603,1.2l-1.402,1h-2.002l-2.002,2.2
			l-1.201,0.8c-0.801,0.6-1.802,1-2.803,1.2l-3.604,1.2l-2.202,1l-2.203,1.8v0.6l-1.402,2.2l-1.602,0.6l-2.002,5.4l-0.6,1.2
			l-2.403,1.4l-2.403,0.6l-2.603,0.6h-0.4l-1.602,0.8l-4.205,1.6l-2.603,1.6l-1.202,1h-10.812l-2.604,1.6h-1l-2.002,1.2"/>
		<path d="M124.887,148.2l-3.404,2.8l-0.801,1.2
			c-0.601,1.2-1.201,2.2-1.802,3c-0.801,1-1.802,1.8-3.003,2.2l-3.804,4.4l-3.804,3.6l-2.402,2l-2.804,3.4l-0.601,0.8h-2.002
			l-1.001,1.2"/>
		<polyline points="353.343,121.2 353.744,121.2 
			353.744,120.6 354.344,120.6 354.344,120.2 354.945,120.2 354.945,119.6 355.345,119.6 355.746,119 358.349,119 358.749,118.6 
			358.749,118 359.35,118 359.751,117.4 359.751,115.8 360.149,115.8 360.149,115.2 360.752,115.2 360.752,114 360.149,113.6 
			360.149,113 361.753,113 361.753,111.8 362.353,111.8 362.353,110.8 362.754,110.2 362.754,109.2 362.353,109.2 362.353,108.6 
			361.352,108.6 		"/>
		<polyline points="359.35,104.8 359.35,104.2 
			360.149,103 360.149,102 360.752,102 361.352,101.4 361.753,101.4 362.353,101 361.753,100.4 361.753,98.8 362.353,98.8 
			362.353,97.6 362.754,97.6 362.754,96.6 362.353,96.6 362.353,96 361.753,96 361.753,94.4 362.353,94.4 362.353,93.8 
			361.753,93.2 361.753,92 362.353,92 362.353,90 361.753,90 361.753,89.4 		"/>
		<polyline points="361.352,108.6 361.352,107 
			360.752,107 360.752,106.4 360.149,106.4 360.149,105.8 359.751,105.8 359.751,105.4 359.35,105.4 359.35,104.8 		"/>
		<path d="M69.625,263.4h-0.601l-0.4-0.6h-0.4l-0.601-0.6
			h-0.601v-1.6l-1.001-1.2v-1.6l-0.4-0.4v-0.6l-1.602-1.6h-0.4V254h-0.401v-1l-1.201-1.6l-1.001-1.2v-0.6h-0.401l-0.4-1.6h-0.601
			v-0.6h-0.601l-0.4-0.6v-2h-1.001v-0.6h-0.4l-3.604-2.2l-0.4-1.8l-0.601-1.6h-0.4l-1.602-1.6l-2.403-1.2l-0.601-0.4H46.6l-0.4-0.6
			h-1.001l-0.601-0.4v-1.2h-0.4v-1.6h-0.601v-2.4h0.601l0.4-0.4v-0.6l0.601-0.6v-1l1.001-1V225l0.4-0.6l0.2-2.8
			c0.2-1.2,0.2-2.4,0.2-3.8l0.201-1.6v-0.6h0.4l0.601-0.6l-0.601-0.4v-3.4l0.601-0.6h0.4V210h0.601v-0.4h1.001l0.4-0.6h0.601v-0.6
			h1.001l3.003-2v-0.6l2.402-2.8v-0.6l3.404-3.8h0.601l1.001-1.2h0.6l0.801-1.2l2.603-5.4"/>
		<polyline points="355.746,244.2 357.347,244.6 
			358.349,244.8 360.149,246.8 361.352,246.8 365.757,251.2 366.758,252.4 372.363,253.8 378.171,254.6 381.774,254.8 
			385.179,254.6 389.783,254.6 395.591,255 401.598,256.2 406.603,257.6 410.808,259.2 413.011,260 		"/>
		<path d="M355.746,244.2v0.6l2.002,1.6l0.601,1.6l0.4,1
			v8.4v3.8l0.601,0.6l0.602,2.2l0.198,1c0.201,2.2,0.803,4.2,1.604,6.2c1.601,3.8,3.402,7.6,5.605,11.399v1l-0.201,0.601l-0.399,1
			l2.603,6.8l4.606,10.2c0.6,1.2,1.4,2.2,2.401,3.2l2.203,2l2.403,2.199l5.205,3.801l0.2,0.399l0.4,1.601"/>
	</g>
	<g id="shields">
		<rect x="405.2" y="277.8" fill-rule="evenodd" clip-rule="evenodd" fill="#FF3F1F" width="11.614" height="3"/>
		<rect x="404.601" y="279.2" fill-rule="evenodd" clip-rule="evenodd" fill="#FF3F1F" width="0.801" height="1.399"/>
		<rect x="416.014" y="278.4" fill-rule="evenodd" clip-rule="evenodd" fill="#FF3F1F" width="1.001" height="2.199"/>
		<path fill-rule="evenodd" clip-rule="evenodd" fill="#003ADF" d="M417.214,281.6l-0.199-0.6h-12.214v1l0.399,1.8
			c0.201,0.8,0.603,1.8,1.402,2.8l1.202,1.4l1.001,0.6l1.4,0.601l0.802,0.2l0.801-0.2l1.4-0.601c0.803-0.399,1.402-1,2.003-1.8
			l1.402-2l0.4-2.6L417.214,281.6z"/>
		<path fill="#FFFFFF" d="M410.607,284.6h0.6l0.401,0.801l0.6,0.199c0.201,0,0.401-0.199,0.603-0.399l0.398-0.8l-0.398-1l-0.603-0.2
			l-0.6,0.2l-0.401,0.199h-0.399l0.399-2.6h2.203v0.6h-1.802l-0.2,1.4l0.8-0.4c0.401,0,0.803,0.2,1.001,0.4l0.401,1.2
			c0,0.6,0,1-0.2,1.2c-0.201,0.399-0.6,0.6-1.202,0.6l-1.001-0.4C411.008,285.4,410.808,285.2,410.607,284.6z M409.606,282.6
			c0-0.399,0-0.6-0.201-0.8c-0.2-0.2-0.4-0.399-0.6-0.399l-0.602,0.399l-0.399,0.8c0,0.4,0.199,0.601,0.399,0.801l0.602,0.399
			c0.199,0,0.399-0.2,0.6-0.399C409.606,283.2,409.606,283,409.606,282.6z M407.403,284.8h0.601l0.2,0.601l0.401,0.199
			c0.2,0,0.399,0,0.6-0.199l0.2-0.4c0.201-0.2,0.201-0.4,0.201-0.6V283.8v-0.2l-0.401,0.4c-0.2,0.2-0.399,0.2-0.6,0.2l-1.002-0.4
			c-0.2-0.2-0.4-0.6-0.4-1.2c0-0.6,0.2-1,0.602-1.199l1.001-0.4l0.801,0.2l0.399,0.8c0.2,0.2,0.2,0.8,0.2,1.4c0,0.6,0,1.199-0.2,1.6
			l-0.399,0.8c-0.201,0.2-0.602,0.2-1.001,0.2l-0.801-0.2C407.604,285.6,407.403,285.2,407.403,284.8z"/>
		<rect x="306.089" y="307" fill-rule="evenodd" clip-rule="evenodd" fill="#FF3F1F" width="11.614" height="3"/>
		<rect x="305.489" y="308.4" fill-rule="evenodd" clip-rule="evenodd" fill="#FF3F1F" width="0.801" height="1.399"/>
		<rect x="316.902" y="307.6" fill-rule="evenodd" clip-rule="evenodd" fill="#FF3F1F" width="1.201" height="2.2"/>
		<path fill-rule="evenodd" clip-rule="evenodd" fill="#003ADF" d="M309.694,317.8l1.401,0.601l0.802,0.399l1.001-0.399l1.4-0.601
			c0.602-0.399,1.201-1,1.803-1.6l1.401-2.2l0.601-2.6V310.8v-0.6H305.69v1.2l0.398,1.6c0.201,0.8,0.803,1.8,1.402,2.8l1.202,1.4
			L309.694,317.8z"/>
		<path fill="#FFFFFF" d="M311.696,312.6c0,1,0.201,1.601,0.4,1.801l0.601,0.399c0.201,0,0.4-0.2,0.601-0.399
			c0.2-0.2,0.2-0.801,0.2-1.801c0-0.8,0-1.399-0.2-1.6s-0.399-0.4-0.601-0.4l-0.601,0.4C311.897,311.2,311.696,311.8,311.696,312.6z
			 M311.096,312.6l0.199-1.399l0.603-0.8l0.8-0.2h0.601l0.401,0.6l0.399,0.601v1.199c0,0.601,0,1.2-0.199,1.601l-0.401,0.8
			l-0.801,0.2l-1.001-0.4C311.295,314.4,311.096,313.6,311.096,312.6z M309.895,310.2v5h-0.602v-4l-0.6,0.399l-0.602,0.4v-0.6
			c0.4-0.2,0.802-0.4,1.002-0.601l0.4-0.6H309.895z"/>
		<rect x="49.203" y="89.2" fill-rule="evenodd" clip-rule="evenodd" fill="#FF3F1F" width="11.613" height="3"/>
		<rect x="48.602" y="90.6" fill-rule="evenodd" clip-rule="evenodd" fill="#FF3F1F" width="0.801" height="1.4"/>
		<rect x="60.215" y="89.8" fill-rule="evenodd" clip-rule="evenodd" fill="#FF3F1F" width="1.001" height="2.2"/>
		<path fill-rule="evenodd" clip-rule="evenodd" fill="#003ADF" d="M55.008,100.8l1.002-0.2l1.402-0.6c0.6-0.4,1.201-1,1.801-1.6
			l1.401-2.2l0.601-2.6V93v-0.6H49.002v1l0.201,1.8c0.2,0.8,0.8,1.8,1.401,2.8l1.401,1.4l0.801,0.6l1.602,0.6L55.008,100.8z"/>
		<path fill="#FFFFFF" d="M55.81,95.6c0,1,0.2,1.6,0.4,1.8l0.601,0.4c0.2,0,0.4-0.2,0.601-0.4c0.199-0.2,0.199-0.8,0.199-1.8
			c0-0.8,0-1.4-0.199-1.6c-0.201-0.2-0.401-0.4-0.601-0.4L56.21,94C56.01,94.2,55.81,94.8,55.81,95.6z M55.209,95.6l0.201-1.4
			l0.601-0.8l0.801-0.2h0.601l0.4,0.6l0.4,0.6v1.2c0,0.6,0,1.2-0.2,1.6L57.611,98l-0.8,0.2l-1.001-0.4
			C55.41,97.4,55.209,96.6,55.209,95.6z M54.208,93.8h-2.402v-0.6h3.003v0.6L54.007,95l-0.6,1.8l-0.201,1.4h-0.601l0.201-1.4
			l0.601-1.6L54.208,93.8z"/>
		<rect x="253.832" y="168.8" fill-rule="evenodd" clip-rule="evenodd" fill="#FF3F1F" width="11.612" height="3"/>
		<rect x="253.23" y="170.2" fill-rule="evenodd" clip-rule="evenodd" fill="#FF3F1F" width="0.801" height="1.4"/>
		<rect x="264.644" y="169.4" fill-rule="evenodd" clip-rule="evenodd" fill="#FF3F1F" width="1.202" height="2.2"/>
		<path fill-rule="evenodd" clip-rule="evenodd" fill="#003ADF" d="M265.846,172.6v-0.4h-12.214v1l0.2,1.8
			c0.199,0.6,0.801,1.6,1.4,2.6l1.402,1.4l0.801,0.6l1.602,0.8l0.602,0.2l1.001-0.4c0.6-0.2,1.001-0.4,1.401-0.6
			c0.601-0.2,1.2-0.8,1.803-1.6l1.4-2.2l0.602-2.6V172.6z"/>
		<path fill="#FFFFFF" d="M260.306,175.5c0,1,0.2,1.6,0.399,1.8l0.602,0.4c0.2,0,0.4-0.2,0.6-0.4c0.2-0.2,0.2-0.8,0.2-1.8
			c0-0.8,0-1.4-0.2-1.6c-0.199-0.2-0.399-0.4-0.6-0.4l-0.602,0.4C260.506,174.1,260.306,174.7,260.306,175.5z M259.704,175.5
			l0.2-1.4l0.602-0.8l0.801-0.2h0.6l0.401,0.6l0.4,0.6v1.2c0,0.6,0,1.2-0.2,1.6l-0.401,0.8l-0.8,0.2l-1.001-0.4
			C259.904,177.3,259.704,176.5,259.704,175.5z M256.701,176.3h1.401v-2.2L256.701,176.3z M258.703,178.1h-0.601v-1.2h-2.002v-0.6
			l2.202-3.2h0.4v3.2h0.601v0.6h-0.601V178.1z"/>
		<rect x="376.77" y="125.2" fill-rule="evenodd" clip-rule="evenodd" fill="#FF3F1F" width="11.613" height="3"/>
		<rect x="376.168" y="126.6" fill-rule="evenodd" clip-rule="evenodd" fill="#FF3F1F" width="0.802" height="1.4"/>
		<rect x="387.781" y="125.8" fill-rule="evenodd" clip-rule="evenodd" fill="#FF3F1F" width="1.001" height="2.2"/>
		<path fill-rule="evenodd" clip-rule="evenodd" fill="#003ADF" d="M388.782,129v-0.6h-12.214v1l0.201,1.8
			c0.2,0.8,0.801,1.8,1.601,2.8l1.202,1.4l0.801,0.6l1.603,0.6l0.801,0.2l0.8-0.2l1.402-0.6c0.601-0.4,1.401-1,2.002-1.8l1.201-2
			l0.601-2.6V129z"/>
		<path fill="#FFFFFF" d="M385.276,129.25v5h-0.602v-4l-0.601,0.4l-0.6,0.4v-0.6c0.4-0.2,0.801-0.4,1.001-0.6l0.4-0.6H385.276z
			 M380.271,132.85l0.201,0.4l0.399,0.4l0.4,0.2c0.201,0,0.4-0.2,0.601-0.4c0.2-0.2,0.2-0.4,0.2-0.6l-0.2-0.8l-0.601-0.2l-0.601,0.2
			C380.472,132.25,380.271,132.45,380.271,132.85z M380.472,130.45l0.199,0.6l0.601,0.2c0.201,0,0.4,0,0.601-0.2
			c0.2-0.2,0.2-0.4,0.2-0.6l-0.2-0.6l-0.601-0.2l-0.601,0.2L380.472,130.45z M380.671,131.45l-0.601-0.4l-0.201-0.6l0.401-1
			l1.001-0.2l1.001,0.2l0.201,1v0.6c-0.201,0.2-0.401,0.4-0.602,0.4l0.602,0.6c0.199,0.2,0.199,0.4,0.199,0.8s-0.199,0.8-0.4,1
			c-0.2,0.2-0.601,0.4-1.001,0.4l-1.001-0.4c-0.401-0.2-0.601-0.6-0.601-1s0.199-0.6,0.4-0.8L380.671,131.45z"/>
		<rect x="161.729" y="120.4" fill-rule="evenodd" clip-rule="evenodd" fill="#FF3F1F" width="11.613" height="3"/>
		<rect x="161.328" y="121.8" fill-rule="evenodd" clip-rule="evenodd" fill="#FF3F1F" width="0.8" height="1.4"/>
		<rect x="172.741" y="121" fill-rule="evenodd" clip-rule="evenodd" fill="#FF3F1F" width="1.001" height="2.2"/>
		<path fill-rule="evenodd" clip-rule="evenodd" fill="#003ADF" d="M165.533,131.2l1.401,0.8l0.801,0.2l0.801-0.4l1.401-0.6
			c0.802-0.4,1.402-1,2.002-1.6l1.202-2.2l0.601-2.6l0.199-0.6l-0.199-0.6h-12.214v1.2l0.4,1.6c0.2,0.8,0.601,1.8,1.402,2.8
			l1.202,1.4L165.533,131.2z"/>
		<path fill="#FFFFFF" d="M168.235,127.767h1.401v-2.2L168.235,127.767z M170.238,129.566h-0.601v-1.2h-2.002v-0.6l2.202-3.2h0.401
			v3.2h0.6v0.6h-0.6V129.566z M164.832,127.767h1.402v-2.2L164.832,127.767z M166.833,129.566h-0.6v-1.2h-2.002v-0.6l2.202-3.2
			h0.401v3.2h0.601v0.6h-0.601V129.566z"/>
		<rect x="222.396" y="235" fill-rule="evenodd" clip-rule="evenodd" fill="#FF3F1F" width="11.813" height="3.2"/>
		<rect x="221.996" y="236.6" fill-rule="evenodd" clip-rule="evenodd" fill="#FF3F1F" width="0.801" height="1.4"/>
		<rect x="233.409" y="235.6" fill-rule="evenodd" clip-rule="evenodd" fill="#FF3F1F" width="1.001" height="2.4"/>
		<path fill-rule="evenodd" clip-rule="evenodd" fill="#003ADF" d="M234.611,238.8l-0.201-0.4h-12.214v1l0.401,1.8
			c0.2,0.8,0.601,1.8,1.401,2.8l1.202,1.2l1.001,0.8l1.402,0.6l0.8,0.2l0.801-0.2l1.603-0.6c0.6-0.4,1.2-1,1.802-1.8
			c0.6-0.6,1.001-1.4,1.202-2.2l0.6-2.4L234.611,238.8z"/>
		<path fill="#FFFFFF" d="M228.636,242.867h0.601l0.4,0.8l0.601,0.2c0.201,0,0.401-0.2,0.6-0.4l0.401-0.8l-0.401-1l-0.6-0.2
			l-0.601,0.2l-0.4,0.2h-0.401l0.401-2.6h2.203v0.6h-1.803l-0.2,1.4l0.8-0.4c0.401,0,0.801,0.2,1.001,0.4l0.401,1.2
			c0,0.6,0,1-0.2,1.2c-0.201,0.4-0.602,0.6-1.202,0.6l-1.001-0.4C229.036,243.667,228.835,243.467,228.636,242.867z
			 M225.231,242.867h0.601l0.4,0.8l0.601,0.2c0.201,0,0.401-0.2,0.602-0.4l0.399-0.8l-0.399-1l-0.602-0.2l-0.601,0.2l-0.4,0.2h-0.4
			l0.4-2.6h2.203v0.6h-1.802l-0.2,1.4l0.8-0.4c0.401,0,0.801,0.2,1.001,0.4l0.401,1.2c0,0.6,0,1-0.201,1.2
			c-0.201,0.4-0.6,0.6-1.202,0.6l-1.001-0.4C225.632,243.667,225.432,243.467,225.231,242.867z"/>
		<rect x="131.094" y="270.2" fill-rule="evenodd" clip-rule="evenodd" fill="#FF3F1F" width="11.813" height="3.2"/>
		<rect x="130.694" y="271.8" fill-rule="evenodd" clip-rule="evenodd" fill="#FF3F1F" width="0.801" height="1.4"/>
		<rect x="142.106" y="270.8" fill-rule="evenodd" clip-rule="evenodd" fill="#FF3F1F" width="1.001" height="2.4"/>
		<path fill-rule="evenodd" clip-rule="evenodd" fill="#003ADF" d="M143.308,274l-0.2-0.4h-12.214v1l0.401,1.8
			c0.2,0.8,0.6,1.8,1.402,2.8l1.201,1.2l1.001,0.8l1.402,0.6l0.801,0.2l0.801-0.2l1.603-0.6c0.6-0.4,1.201-1,1.802-1.8
			c0.6-0.601,1.001-1.4,1.202-2.2l0.6-2.4L143.308,274z"/>
		<path fill="#FFFFFF" d="M137.834,276.75c0,1,0.2,1.6,0.4,1.8l0.602,0.4c0.2,0,0.399-0.2,0.6-0.4c0.201-0.2,0.201-0.8,0.201-1.8
			c0-0.8,0-1.4-0.201-1.6c-0.2-0.2-0.399-0.4-0.6-0.4l-0.602,0.4C138.035,275.35,137.834,275.95,137.834,276.75z M137.233,276.75
			l0.2-1.4l0.601-0.8l0.801-0.2h0.6l0.401,0.6l0.4,0.6v1.2c0,0.6,0,1.2-0.2,1.6l-0.401,0.8l-0.8,0.199l-1.001-0.399
			C137.434,278.55,137.233,277.75,137.233,276.75z M134.631,278.75h2.203v0.6h-3.003v-0.399l0.4-0.8c0.2-0.2,0.401-0.4,0.801-0.8
			l1.001-1l0.2-0.8c0-0.2,0-0.4-0.2-0.6l-0.602-0.2l-0.8,0.4l-0.201,0.6h-0.6l0.6-1.2l1.001-0.2c0.401,0,0.801,0.2,1.001,0.4
			l0.401,1l-0.201,0.6l-0.4,0.6c-0.2,0.2-0.4,0.4-0.801,0.8l-0.6,0.6L134.631,278.75z"/>
		<path fill-rule="evenodd" clip-rule="evenodd" d="M417.015,280.2l-0.602-2.4l-1.001,0.4l-1.001,0.2h-1.202l-1.4-0.4l-0.4-0.2h-0.4
			h-0.4l-0.401,0.2l-1.4,0.4h-1.202l-1.201-0.2l-0.801-0.4l-0.801,2.601h12.214V280.2z M417.615,282.2l-0.201,1.8
			c-0.2,1-0.8,2.2-1.802,3.2l-1.001,1.2c-0.8,0.6-1.601,1.199-2.602,1.399l-1.002,0.2h-0.802l-1.201-0.6
			c-1.001-0.4-1.802-1.2-2.603-2.2l-1.202-1.8l-0.8-2l-0.201-2.601l0.401-1.8l0.6-2l1.202,0.4l1.201,0.2h1.202l1.601-0.2l0.401-0.2
			h0.2h0.4l0.2,0.2l1.601,0.2h2.403l1.202-0.6l0.6,2.4l0.401,1.399L417.615,282.2z M417.214,281h-12.413v1l0.399,1.8l1.402,2.8
			l1.202,1.4l1.001,0.6l1.4,0.601l0.802,0.2l0.801-0.2l1.602-0.601c0.602-0.399,1.201-1,1.802-1.8l1.402-2c0.2-0.6,0.4-1.6,0.6-2.6
			V281z"/>
		<path fill-rule="evenodd" clip-rule="evenodd" d="M306.089,313c0.201,0.8,0.803,1.8,1.402,2.8l1.402,1.4l0.801,0.6l1.601,0.601
			l0.603,0.399l1.001-0.399l1.4-0.601c0.602-0.399,1.201-1,1.803-1.6l1.401-2.2c0.2-0.6,0.401-1.6,0.601-2.6v-1.2H305.69v1.2
			L306.089,313z M308.492,307.6l-1.001-0.199l-1.001-0.4l-0.8,2.6h12.413V309.4l-0.802-2.4l-1.001,0.4L315.3,307.6h-1.201
			l-1.401-0.399l-0.4-0.2h-0.399h-0.401l-0.201,0.2l-1.601,0.399H308.492z M309.694,306.8l1.601-0.2l0.401-0.199h0.201h0.399
			l0.2,0.199l1.602,0.2h2.403l1.201-0.6l0.801,2.399l0.2,1.4v1.4l-0.401,2c-0.199,1-0.8,2-1.601,3.199l-1.202,1
			c-0.8,0.601-1.601,1.2-2.602,1.4l-1.001,0.4l-0.802-0.2l-1.201-0.4c-0.801-0.6-1.603-1.2-2.604-2.2l-1.202-2l-0.6-2l-0.401-2.6
			l0.401-1.8l0.801-2l1.001,0.399l1.201,0.2H309.694z"/>
		<path fill-rule="evenodd" clip-rule="evenodd" d="M49.403,95.2c0.2,0.8,0.6,1.8,1.201,2.8l1.401,1.4l0.801,0.6l1.602,0.6l0.6,0.2
			l1.002-0.2l1.402-0.6l2.002-1.6l1.201-2.2c0.201-0.6,0.401-1.6,0.601-2.6v-1.2H49.002v1L49.403,95.2z M49.603,89.2l-0.601,2.4v0.2
			h12.214v-0.2l-0.601-2.4l-1.001,0.4l-1.001,0.2h-1.401l-1.401-0.4l-0.4-0.2h-0.401h-0.199l-0.4,0.2l-1.402,0.4h-1.401l-1.001-0.2
			L49.603,89.2z M55.008,88.4l0.401,0.2l0.4,0.2l1.401,0.2l2.402-0.2l1.202-0.4l0.801,2.4l0.2,1.4v1.4l-0.4,2
			c-0.201,1-0.802,2-1.602,3l-1.001,1.2c-0.801,0.6-1.602,1.2-2.604,1.4l-1.202,0.2l-0.8-0.2l-1.001-0.4
			c-1.001-0.4-1.802-1.2-2.803-2.2l-1.201-1.8l-0.601-2l-0.2-2.6l0.2-1.8l0.801-2l1.201,0.4l1.202,0.2h1.001l1.602-0.2L55.008,88.4z
			"/>
		<path fill-rule="evenodd" clip-rule="evenodd" d="M265.846,172.2h-12.214v1l0.2,1.8l1.4,2.6l1.402,1.4l0.801,0.6l1.602,0.8
			l0.602,0.2l1.001-0.4l1.401-0.6l1.803-1.6l1.4-2.2c0.2-0.6,0.4-1.4,0.602-2.6V172.2z M266.246,170.6l0.199,1.2v1.4l-0.4,2
			c-0.199,1-0.801,2-1.602,3.2l-1.202,1c-0.6,0.6-1.601,1.2-2.602,1.4l-1.001,0.4l-0.801-0.2l-1.001-0.4
			c-1.001-0.6-1.803-1.2-2.804-2.2l-1.201-2l-0.602-2l-0.399-2.6l0.399-1.6l0.801-2.2l1.002,0.6h1.2h1.202l1.602-0.2l0.4-0.2h0.201
			h0.399l0.2,0.2l1.603,0.2h2.401l1.202-0.6L266.246,170.6z M264.043,169.2l-0.802,0.2h-1.4l-1.402-0.4h-0.4l-0.399-0.2l-0.201,0.2
			h-0.4l-1.602,0.4h-1.202l-1.001-0.2l-1.001-0.4l-0.6,2.6h12.214v-0.2l-0.802-2.2L264.043,169.2z"/>
		<path fill-rule="evenodd" clip-rule="evenodd" d="M388.782,128.4h-12.214v1l0.401,1.8l1.4,2.8l1.202,1.4l0.801,0.6l1.603,0.6
			l0.801,0.2l0.8-0.2l1.603-0.6c0.601-0.4,1.201-1,1.802-1.8l1.201-2c0.201-0.6,0.4-1.6,0.601-2.6V128.4z M383.176,124.8l1.803,0.2
			l2.202-0.2l1.202-0.4l0.8,2.4l0.201,1.4v1.4l-0.4,1.8c-0.201,1-0.802,2.2-1.603,3.2l-1.001,1.2c-0.801,0.6-1.602,1.2-2.603,1.4
			l-1.001,0.2l-1.002-0.2l-1.001-0.4c-1.001-0.4-1.801-1.2-2.803-2.2l-1.201-1.8l-0.602-2l-0.199-2.6l0.199-1.8l0.802-2l1.201,0.4
			l1.201,0.2h1.001l1.603-0.2l0.6-0.2l0.201-0.2l0.2,0.2L383.176,124.8z M381.976,125.4l-1.402,0.4h-1.201l-1.201-0.2l-1.001-0.4
			l-0.602,2.4v0.2h12.214v-0.2l-0.601-2.4l-1.001,0.4l-1.001,0.2h-1.401l-1.401-0.4l-0.4-0.2h-0.2h-0.4L381.976,125.4z"/>
		<path fill-rule="evenodd" clip-rule="evenodd" d="M161.528,124.8l0.4,1.6c0.2,0.8,0.601,1.8,1.402,2.8l1.202,1.4l1.001,0.6
			l1.401,0.8l0.801,0.2l0.801-0.4l1.602-0.6l1.802-1.6l1.202-2.2c0.401-0.6,0.601-1.6,0.8-2.6v-1.2h-12.413V124.8z M165.533,120.2
			l1.602-0.2l0.4-0.2h0.2h0.2c0.201,0.2,0.401,0.2,0.401,0.2l1.601,0.2h2.203l1.201-0.6l0.801,2.4l0.401,1.4l-0.201,1.4l-0.401,2
			c-0.199,1-0.6,2-1.601,3.2l-1.001,1c-0.8,0.6-1.601,1.2-2.603,1.4l-1.001,0.4l-1.001-0.2l-1.001-0.4
			c-1.001-0.6-1.803-1.2-2.604-2.2l-1.401-2l-0.601-2l-0.2-2.6l0.401-1.6l0.6-2.2l1.202,0.4l1.202,0.2H165.533z M163.13,120.8
			l-1.001-0.4l-0.6,2.6h12.214v-0.2l-0.601-2.4l-1.001,0.4l-1.001,0.2h-1.401l-1.402-0.4l-0.401-0.2h-0.2h-0.401l-0.4,0.2
			l-1.401,0.4h-1.202L163.13,120.8z"/>
		<path fill-rule="evenodd" clip-rule="evenodd" d="M234.611,238.4h-12.415v1l0.401,1.8l1.401,2.8l1.202,1.4l1.001,0.6l1.402,0.6
			l0.8,0.2l0.801-0.2l1.603-0.6c0.6-0.4,1.2-1,1.802-1.8l1.202-2.2c0.399-0.6,0.6-1.4,0.801-2.4V238.4z M234.209,234.4l0.602,2.4
			l0.399,1.4l-0.201,1.4l-0.399,1.8c-0.201,1-0.602,2.2-1.603,3.2l-1.001,1.2c-0.801,0.6-1.601,1.2-2.603,1.4l-1.001,0.2l-0.8-0.2
			l-1.202-0.4c-1.001-0.4-1.802-1.2-2.603-2.2l-1.402-1.8l-0.601-2l-0.2-2.6l0.4-1.8l0.601-2l1.202,0.4l1.201,0.2h1.202l1.602-0.2
			l0.601-0.4l0.4,0.2h0.2l1.603,0.4h2.401L234.209,234.4z M231.808,235.6h-1.402l-1.402-0.2l-0.2-0.2h-0.4h-0.401l-0.399,0.2
			l-1.402,0.2h-1.202h-1.201l-0.802-0.4l-0.801,2.4v0.2h12.214v-0.2l-0.6-2.4l-1.001,0.4H231.808z"/>
		<path fill-rule="evenodd" clip-rule="evenodd" d="M143.308,273.6h-12.414v1l0.401,1.8l1.402,2.8l1.201,1.399l1.001,0.601
			l1.402,0.6l0.801,0.2l0.801-0.2l1.603-0.6c0.6-0.4,1.201-1,1.802-1.8l1.202-2.2c0.399-0.6,0.6-1.4,0.8-2.4V273.6z M142.907,269.6
			l0.602,2.4l0.4,1.4l-0.2,1.4l-0.401,1.8c-0.2,1-0.601,2.2-1.602,3.2l-1.001,1.2c-0.801,0.6-1.603,1.2-2.604,1.4l-1.001,0.199
			L136.3,282.4l-1.202-0.4c-1.001-0.4-1.801-1.2-2.603-2.2l-1.402-1.8l-0.6-2l-0.2-2.6l0.4-1.8l0.601-2l1.201,0.4l1.202,0.2h1.201
			l1.603-0.2l0.6-0.4l0.401,0.2h0.2l1.602,0.4h2.403L142.907,269.6z M140.505,270.8h-1.402l-1.401-0.2l-0.2-0.2h-0.401h-0.4
			l-0.401,0.2l-1.402,0.2h-1.201h-1.202l-0.8-0.4l-0.802,2.4v0.2h12.214v-0.2l-0.6-2.4l-1.001,0.4H140.505z"/>
	</g>
</g>
<g id="cities" transform="scale(1.8125) translate(-16,-15)">
	<g>
		<rect x="335.924" y="218.2" fill-rule="evenodd" clip-rule="evenodd" width="6.007" height="6.6"/>
		<path d="M289.07,309.4h2.203l-0.201-1l-0.8-0.2c-0.4,0-0.601,0.2-0.801,0.399C289.271,308.8,289.07,309,289.07,309.4z
			 M292.074,309.6v0.4h-3.004l0.201,0.6l0.2,0.4l0.4,0.4h0.601l0.801-0.2c0.2,0,0.401,0,0.601-0.2v0.8l-0.601,0.2h-0.801
			c-0.601,0-1.201-0.2-1.402-0.4c-0.399-0.399-0.6-1-0.6-1.8c0-0.6,0.2-1.2,0.4-1.6l1.401-0.601c0.601,0,1.001,0.2,1.201,0.4
			C291.874,308.4,292.074,309,292.074,309.6z M287.47,306v6h-0.802v-6H287.47z M285.467,307.6v4.4h-0.801v-4.4H285.467z
			 M285.467,306.2v0.8h-0.801v-0.8H285.467z M283.063,309.8c0-0.6,0-1-0.199-1.2c-0.2-0.199-0.4-0.399-0.802-0.399l-0.6,0.2
			l-0.401,0.399v2.4l0.401,0.2h0.4c0.4,0,0.801-0.2,1.001-0.4C283.063,310.8,283.063,310.4,283.063,309.8z M283.865,309.8
			c0,0.4,0,0.8-0.2,1l-0.4,0.8l-0.601,0.4c-0.2,0.2-0.4,0.2-0.602,0.2l-0.6-0.2l-0.401-0.2l-0.199,0.2h-0.602v-6h0.801v2.2
			l0.601-0.4l0.602-0.2l1.201,0.601C283.665,308.6,283.865,309.2,283.865,309.8z M278.46,309.8c0-0.6,0-1-0.201-1.2l-0.8-0.399
			c-0.401,0-0.602,0.2-0.802,0.399c-0.201,0.2-0.4,0.601-0.4,1.2c0,0.601,0.199,1,0.4,1.2c0.2,0.2,0.4,0.4,0.802,0.4l0.8-0.4
			C278.46,310.8,278.46,310.4,278.46,309.8z M279.26,309.8c0,0.8-0.2,1.4-0.601,1.8c-0.199,0.4-0.601,0.601-1.2,0.601
			c-0.602,0-1.003-0.2-1.402-0.601c-0.2-0.399-0.4-1-0.4-1.8c0-0.6,0.2-1.2,0.4-1.6l1.402-0.601c0.6,0,1.001,0.2,1.2,0.601
			C279.06,308.6,279.26,309.2,279.26,309.8z M274.654,306.2v5.8h-0.8v-5l-1.402,3.4h-0.4l-1.401-3.4v5h-0.801v-5.8h1.001l1.401,3.2
			l1.401-3.2H274.654z"/>
		<path d="M373.766,220.6v-0.4l-0.2,0.2l-0.4,0.2h-0.4l-0.401,0.2l-1.001-0.4c-0.199-0.2-0.399-0.6-0.399-1.2l0.2-0.8l0.601-0.4
			l0.801-0.4h1.201l-0.2-0.6l-1.001-0.2l-0.6,0.2l-0.603,0.2h-0.199V216l0.802-0.2h1.001c0.8,0,1.4,0.2,1.601,0.4
			c0.401,0.2,0.601,0.6,0.601,1.2v3.2H373.766z M373.766,219.4v-1h-0.601c-0.199,0.2-0.4,0.2-0.4,0.2l-0.401,0.2l-0.199,0.4
			l0.199,0.2v0.2h0.201l0.401,0.2l0.399-0.2L373.766,219.4z M370.361,219.6v1h-0.6c-0.201,0.2-0.401,0.2-0.601,0.2
			c-0.602,0-0.802-0.2-1.001-0.4c-0.2-0.2-0.4-0.6-0.4-1.2V217h-0.603v-1h0.603v-1.4h1.201v1.4h1.4v1h-1.4v1.6v0.4l0.2,0.4
			l0.199,0.2c0,0.2,0.2,0.2,0.401,0.2l0.2-0.2h0.2H370.361z M366.357,217.6v3h-1.202v-2.4v-0.4l-0.198-0.4l-0.201-0.4h-0.401h-0.399
			l-0.4,0.2v3.4h-1.402V216h1.402v0.4l0.6-0.4l0.803-0.2c0.6,0,1.001,0.2,1.199,0.4C366.357,216.4,366.357,217,366.357,217.6z
			 M359.55,220.6v-0.4l-0.2,0.2l-0.399,0.2h-0.401l-0.401,0.2l-1.001-0.4c-0.198-0.2-0.399-0.6-0.399-1.2l0.201-0.8l0.6-0.4
			l0.801-0.4h1.201l-0.2-0.6l-1.001-0.2l-0.601,0.2l-0.602,0.2h-0.198V216l0.8-0.2h1.001c0.801,0,1.4,0.2,1.602,0.4
			c0.401,0.2,0.602,0.6,0.602,1.2v3.2H359.55z M359.55,219.4v-1h-0.6c-0.201,0.2-0.401,0.2-0.401,0.2l-0.401,0.2l-0.198,0.4
			l0.198,0.2v0.2h0.201l0.4,0.2l0.399-0.2L359.55,219.4z M355.746,214.2v6.4h-1.402v-6.4H355.746z M353.543,219.6v1h-0.601
			c-0.199,0.2-0.4,0.2-0.601,0.2c-0.6,0-0.801-0.2-1.001-0.4c-0.201-0.2-0.4-0.6-0.4-1.2V217h-0.601v-1h0.601v-1.4h1.2v1.4h1.402v1
			h-1.402v1.6v0.4l0.201,0.4l0.2,0.2c0,0.2,0.201,0.2,0.4,0.2l0.2-0.2h0.2H353.543z M346.535,218.2h1.202l-0.602-2.2L346.535,218.2z
			 M347.937,214.4l2.202,6.2h-1.601l-0.401-1.2h-2.002l-0.399,1.2h-1.604l2.203-6.2H347.937z"/>
		<rect x="404.801" y="305.2" fill-rule="evenodd" clip-rule="evenodd" width="5.807" height="6.6"/>
		<path d="M434.434,317.2h1.802l-0.199-0.601l-0.601-0.199l-0.602,0.199L434.434,317.2z M437.637,317.6v0.601h-3.203l0.4,0.8
			l1.001,0.4c0.4,0,0.801,0,1.002-0.2l0.601-0.4h0.199v1.2l-1.001,0.2l-0.801,0.2c-1.001,0-1.602-0.2-2.002-0.601
			c-0.4-0.6-0.601-1.2-0.601-1.8c0-0.8,0.2-1.4,0.601-2c0.4-0.4,1.001-0.6,1.802-0.6c0.601,0,1.202,0.199,1.402,0.6
			C437.438,316.4,437.637,317,437.637,317.6z M432.231,313.8v6.4h-1.401v-6.4H432.231z M429.628,313.8v6.4h-1.401v-6.4H429.628z
			 M427.026,313.8v1h-1.402v-1H427.026z M427.026,315.6v4.601h-1.402V315.6H427.026z M423.421,315.6h1.202l-1.602,4.601h-1.402
			l-1.601-4.601h1.4l1.001,3.2L423.421,315.6z M419.216,317.2v3h-1.199v-2.4V317.4l-0.201-0.4l-0.2-0.4h-0.401h-0.399l-0.401,0.2
			v3.4h-1.4V315.6h1.4v0.4l0.602-0.4l0.801-0.199c0.6,0,1.001,0.199,1.202,0.399C419.216,316,419.216,316.6,419.216,317.2z
			 M412.409,319l0.2-0.4v-0.8l-0.2-0.6v-0.4l-0.399-0.2l-0.401-0.199h-0.2l-0.4,0.399c0,0,0,0.2-0.2,0.4v0.6v0.8l0.2,0.4
			c0.199,0.2,0.199,0.2,0.199,0.2l0.401,0.2l0.401-0.2L412.409,319z M414.012,317.8c0,0.8-0.2,1.4-0.602,1.8
			c-0.399,0.601-1.001,0.801-1.802,0.801c-0.601,0-1.202-0.2-1.603-0.801c-0.399-0.399-0.601-1-0.601-1.8l0.601-1.8
			c0.4-0.4,1.002-0.6,1.603-0.6c0.801,0,1.402,0.199,1.802,0.6C413.812,316.6,414.012,317.2,414.012,317.8z M408.806,318.8
			c0,0.4-0.2,0.8-0.602,1c-0.399,0.4-1.001,0.601-1.602,0.601l-1.201-0.2l-0.601-0.2v-1.2h0.399l0.201,0.2l0.601,0.2l0.601,0.2
			c0.201,0,0.4,0,0.601-0.2c0.2,0,0.2,0,0.2-0.2l-0.2-0.2l-0.399-0.2l-0.401-0.199h-0.4l-1.001-0.601l-0.2-0.8l0.601-1.2
			c0.401-0.2,1.001-0.399,1.602-0.399l0.802,0.199l0.801,0.2v1.2h-0.201c-0.2-0.2-0.4-0.4-0.6-0.4l-0.802-0.199l-0.601,0.199
			l-0.201,0.2l0.201,0.2c0,0.2,0.2,0.2,0.401,0.2l0.399,0.2h0.4l0.801,0.399L408.806,318.8z M402.799,317.6l1.602,2.601h-1.602
			l-1.201-2l-0.401,0.399v1.601h-1.401v-6.4h1.401v3.8l1.402-2h1.601L402.799,317.6z M397.393,320.4c-0.201,0-0.602,0-1.001-0.2
			l-0.801-0.4l-0.401-0.8l-0.199-1.2l0.199-1l0.401-0.8l0.801-0.4l1.001-0.199l0.8,0.199l0.802,0.2v1.2h-0.2h-0.2l-0.401-0.2
			l-0.199-0.2h-0.601l-0.801,0.2l-0.2,1c0,0.601,0,0.8,0.2,1l1.001,0.4h0.4l0.4-0.2l0.2-0.2h0.2h0.2v1.2l-0.802,0.2L397.393,320.4z
			 M392.587,320.2v-0.4l-0.2,0.2l-0.4,0.2h-0.4l-0.401,0.2l-1.001-0.4c-0.199-0.2-0.4-0.6-0.4-1.2l0.201-0.8l0.601-0.4l0.801-0.399
			h1.201l-0.2-0.601l-1.001-0.199l-0.601,0.199l-0.602,0.2h-0.199v-1.2l0.801-0.199h1.001c0.801,0,1.401,0.199,1.602,0.399
			c0.4,0.2,0.601,0.601,0.601,1.2v3.2H392.587z M392.587,319v-1h-0.601c-0.2,0.2-0.4,0.2-0.4,0.2l-0.401,0.2l-0.199,0.399l0.199,0.2
			v0.2h0.201l0.4,0.2l0.4-0.2L392.587,319z M388.782,314v4.4v0.8l-0.399,0.6l-0.802,0.4c-0.2,0.2-0.601,0.2-1.001,0.2h-0.601
			l-0.601-0.2V319l0.4,0.2h0.601c0.2,0,0.4,0,0.601-0.2c0.2,0,0.2,0,0.2-0.2c0.2-0.2,0.2-0.399,0.2-0.6V317.6V315.2h-1.201V314
			H388.782z"/>
		<path d="M362.754,304.6h2.401l-0.399-1c-0.2-0.199-0.401-0.399-0.801-0.399l-1.001,0.399L362.754,304.6z M365.757,304.8v0.4
			h-3.003v0.6l0.399,0.601l0.401,0.399h0.6l0.803-0.2l0.8-0.399v1l-0.8,0.2h-0.803c-0.6,0-1.2-0.2-1.601-0.601
			c-0.401-0.399-0.601-1-0.601-1.8l0.601-1.8l1.401-0.601c0.601,0,1.2,0.2,1.4,0.601C365.557,303.6,365.757,304.2,365.757,304.8z
			 M358.147,304.6h2.403l-0.401-1c-0.198-0.199-0.398-0.399-0.8-0.399l-1.001,0.399L358.147,304.6z M361.151,304.8v0.4h-3.004v0.6
			l0.401,0.601l0.401,0.399h0.6l0.801-0.2l0.801-0.399v1l-0.801,0.2h-0.801c-0.6,0-1.201-0.2-1.601-0.601
			c-0.401-0.399-0.603-1-0.603-1.8l0.603-1.8l1.4-0.601c0.602,0,1.201,0.2,1.402,0.601C360.952,303.6,361.151,304.2,361.151,304.8z
			 M356.346,306c0,0.4-0.2,0.8-0.398,1c-0.201,0.2-0.603,0.4-1.202,0.4h-1.001l-0.602-0.2v-1l0.802,0.399l0.801,0.2l0.801-0.2
			c0.2,0,0.2-0.199,0.2-0.399s0-0.4-0.2-0.4l-0.601-0.399h-0.4l-0.401-0.2l-0.801-0.4l-0.2-0.8l0.2-0.6l0.2-0.4l0.601-0.2l0.802-0.2
			l0.601,0.2l0.8,0.2v0.8h-0.2l-0.6-0.399l-0.801-0.2l-0.602,0.2l-0.199,0.6l0.199,0.4c0,0.199,0.2,0.199,0.401,0.199h0.4
			c0.199,0.2,0.399,0.2,0.399,0.2l0.801,0.4L356.346,306z M352.342,306c0,0.4-0.201,0.8-0.4,1s-0.601,0.4-1.201,0.4h-1.001
			l-0.602-0.2v-1l0.802,0.399l0.801,0.2l0.801-0.2c0.201,0,0.201-0.199,0.201-0.399s0-0.4-0.201-0.4l-0.601-0.399h-0.4l-0.401-0.2
			l-0.801-0.4l-0.2-0.8l0.2-0.6l0.201-0.4l0.6-0.2l0.802-0.2l0.601,0.2l0.801,0.2v0.8h-0.201l-0.6-0.399l-0.801-0.2l-0.602,0.2
			l-0.199,0.6l0.199,0.4c0,0.199,0.201,0.199,0.401,0.199h0.4c0.199,0.2,0.4,0.2,0.4,0.2l0.8,0.4L352.342,306z M347.336,306.2V305
			h-0.6l-0.802,0.2l-0.4,0.2l-0.2,0.6l0.2,0.6l0.601,0.2c0.2,0,0.4,0,0.602-0.2L347.336,306.2z M348.137,304.2v3.2h-0.801V307
			l-0.2,0.2l-0.399,0.2h-0.401l-0.4,0.199l-1.001-0.399l-0.4-1.2l0.201-0.8l0.6-0.601l1.001-0.199h1.001v-0.2v-0.4l-0.2-0.399
			h-0.399h-0.401h-0.6l-0.802,0.199v-0.8l0.601-0.2h0.801h0.801l0.401,0.4l0.399,0.4L348.137,304.2z M343.332,304.4v3h-0.601V304.8
			l-0.2-0.6V303.6l-0.401-0.199h-0.4h-0.601l-0.6,0.6v3.4h-0.802V301h0.802v2.2l0.8-0.4l0.602-0.2c0.601,0,0.801,0.2,1.001,0.4
			L343.332,304.4z M337.726,306.2V305h-0.602l-0.8,0.2l-0.4,0.2l-0.201,0.6l0.201,0.6l0.601,0.2c0.2,0,0.4,0,0.6-0.2L337.726,306.2z
			 M338.526,304.2v3.2h-0.801V307l-0.2,0.2l-0.401,0.2h-0.399l-0.4,0.199l-1.001-0.399l-0.4-1.2l0.199-0.8l0.601-0.601l1.002-0.199
			h1.001v-0.2v-0.4l-0.2-0.399h-0.401h-0.399h-0.602l-0.8,0.199v-0.8l0.601-0.2h0.801h0.801l0.4,0.4l0.4,0.4L338.526,304.2z
			 M333.721,301v6.4h-0.801V301H333.721z M331.719,301v6.4h-0.801V301H331.719z M328.716,306.2V305h-0.602l-0.8,0.2l-0.4,0.2
			l-0.201,0.6l0.201,0.6l0.6,0.2c0.2,0,0.401,0,0.601-0.2L328.716,306.2z M329.516,304.2v3.2h-0.8V307l-0.201,0.2l-0.4,0.2h-0.4
			l-0.399,0.199l-1.002-0.399l-0.399-1.2l0.199-0.8l0.601-0.601l1.001-0.199h1.002v-0.2v-0.4l-0.201-0.399h-0.4h-0.4h-0.601
			l-0.801,0.199v-0.8l0.602-0.2h0.8h0.801l0.401,0.4l0.4,0.4L329.516,304.2z M326.513,301.2v0.8h-2.002v5.4h-0.801V302h-2.002v-0.8
			H326.513z"/>
		<path fill-rule="evenodd" clip-rule="evenodd" d="M346.335,313l-0.4,1.2c-0.199,0.2-0.601,0.399-1.001,0.399l-1.001-0.399
			l-0.4-1.2c0-0.6,0.2-1,0.4-1.2l1.001-0.399c0.4,0,0.802,0.199,1.001,0.399C346.135,312,346.335,312.4,346.335,313z"/>
		<rect x="402.197" y="166.6" fill-rule="evenodd" clip-rule="evenodd" width="5.807" height="6.6"/>
		<path d="M428.828,161h1.801l-0.2-0.6l-0.6-0.2l-0.602,0.2L428.828,161z M432.031,161.4v0.6h-3.203l0.399,0.8l1.002,0.4
			c0.399,0,0.801,0,1.001-0.2l0.601-0.4h0.2v1.2l-1.001,0.2l-0.801,0.2c-1.002,0-1.603-0.2-2.003-0.6c-0.4-0.6-0.601-1.2-0.601-1.8
			c0-0.8,0.2-1.4,0.601-2c0.4-0.4,1.001-0.6,1.803-0.6c0.6,0,1.201,0.2,1.401,0.6C431.831,160.2,432.031,160.8,432.031,161.4z
			 M427.026,163v1h-0.603c-0.199,0.2-0.398,0.2-0.6,0.2c-0.601,0-0.801-0.2-1.001-0.4c-0.2-0.2-0.401-0.6-0.401-1.2v-2.2h-0.6v-1
			h0.6V158h1.202v1.4h1.402v1h-1.402v1.6v0.4l0.2,0.4l0.201,0.2c0,0.2,0.199,0.2,0.398,0.2l0.201-0.2h0.2H427.026z M423.421,163v1
			h-0.6c-0.201,0.2-0.401,0.2-0.601,0.2c-0.602,0-0.802-0.2-1.002-0.4c-0.199-0.2-0.4-0.6-0.4-1.2v-2.2h-0.601v-1h0.601V158h1.202
			v1.4h1.4v1h-1.4v1.6v0.4l0.2,0.4l0.199,0.2c0,0.2,0.2,0.2,0.401,0.2l0.2-0.2h0.2H423.421z M418.215,162.8l0.2-0.4v-0.8l-0.2-0.6
			v-0.4l-0.399-0.2l-0.401-0.2h-0.2l-0.399,0.4c0,0,0,0.2-0.2,0.4v0.6v0.8l0.2,0.4c0.2,0.2,0.2,0.2,0.2,0.2l0.399,0.2l0.401-0.2
			L418.215,162.8z M419.817,161.6c0,0.8-0.2,1.4-0.602,1.8c-0.399,0.6-1.001,0.8-1.802,0.8c-0.6,0-1.201-0.2-1.601-0.8
			c-0.401-0.4-0.602-1-0.602-1.8l0.602-1.8c0.399-0.4,1.001-0.6,1.601-0.6c0.801,0,1.402,0.2,1.802,0.6
			C419.617,160.4,419.817,161,419.817,161.6z M414.21,157.6v6.4h-1.399v-6.4H414.21z M412.01,159.4v1.4h-0.201h-0.2h-0.401h-0.6
			h-0.401v3.2h-1.4v-4.6h1.4v0.6l0.802-0.6h0.601h0.2H412.01z M406.402,164v-0.4l-0.201,0.2l-0.398,0.2h-0.401l-0.4,0.2L404,163.8
			c-0.2-0.2-0.4-0.6-0.4-1.2l0.2-0.8l0.601-0.4l0.8-0.4h1.202l-0.201-0.6l-1.001-0.2l-0.6,0.2L404,160.6h-0.2v-1.2l0.801-0.2h1.001
			c0.801,0,1.401,0.2,1.602,0.4c0.4,0.2,0.602,0.6,0.602,1.2v3.2H406.402z M406.402,162.8v-1h-0.6c-0.201,0.2-0.401,0.2-0.401,0.2
			l-0.4,0.2l-0.2,0.4l0.2,0.2v0.2h0.199l0.401,0.2l0.4-0.2L406.402,162.8z M402.397,161v3h-1.201v-2.4v-0.4l-0.2-0.4l-0.199-0.4
			h-0.401h-0.4l-0.4,0.2v3.4h-1.402v-6.4h1.402v2.2l0.601-0.4l0.801-0.2c0.602,0,1.001,0.2,1.201,0.4
			C402.397,159.8,402.397,160.4,402.397,161z M395.189,164.2l-1.201-0.2l-0.801-0.6l-0.601-1l-0.2-1.4l0.2-1.4l0.601-1l0.801-0.6
			l1.201-0.4l0.601,0.2h0.602l0.399,0.2l0.4,0.2v1.6h-0.199l-0.201-0.4l-0.399-0.2l-0.4-0.2l-0.602-0.2l-0.399,0.2l-0.602,0.4
			l-0.4,0.6v1v0.8l0.4,0.8l0.602,0.2l0.399,0.2c0.201,0,0.4,0,0.602-0.2l0.4-0.2l0.399-0.2l0.201-0.2h0.199v1.4l-0.4,0.2l-0.399,0.2
			h-0.4L395.189,164.2z"/>
		<path d="M318.704,153h2.402l-0.399-1c-0.201-0.2-0.4-0.4-0.801-0.4l-1.001,0.4L318.704,153z M321.708,153.2v0.4h-3.004v0.6
			l0.4,0.6l0.4,0.4h0.601l0.802-0.2l0.801-0.4v1l-0.801,0.2h-0.802c-0.601,0-1.2-0.2-1.602-0.6c-0.4-0.4-0.6-1-0.6-1.8l0.6-1.8
			l1.402-0.6c0.6,0,1.2,0.2,1.401,0.6C321.507,152,321.708,152.6,321.708,153.2z M316.702,149.4v6.4h-0.801v-6.4H316.702z
			 M314.499,149.4v6.4h-0.8v-6.4H314.499z M312.497,151.2v4.6h-0.801v-4.6H312.497z M312.497,149.6v0.8h-0.801v-0.8H312.497z
			 M310.095,151.2h0.802l-1.803,4.6h-0.602l-1.801-4.6h0.8l1.402,3.6L310.095,151.2z M305.891,152.8v3h-0.602v-2.6l-0.201-0.6V152
			l-0.399-0.2h-0.4h-0.601l-0.602,0.6v3.4h-0.801v-6.4h0.801v2.2l0.803-0.4l0.6-0.2c0.6,0,0.801,0.2,1.001,0.4L305.891,152.8z
			 M301.084,154.4c0,0.4-0.199,0.8-0.399,1c-0.201,0.2-0.602,0.4-1.202,0.4h-1.001l-0.601-0.2v-1l0.802,0.4l0.8,0.2l0.801-0.2
			c0.2,0,0.2-0.2,0.2-0.4c0-0.2,0-0.4-0.2-0.4l-0.6-0.4h-0.401l-0.4-0.2l-0.802-0.4l-0.199-0.8l0.199-0.6l0.201-0.4l0.601-0.2
			l0.802-0.2l0.6,0.2l0.801,0.2v0.8h-0.199l-0.602-0.4l-0.801-0.2l-0.601,0.2l-0.199,0.6l0.199,0.4c0,0.2,0.2,0.2,0.4,0.2h0.401
			c0.2,0.2,0.399,0.2,0.399,0.2l0.802,0.4L301.084,154.4z M296.078,154.6v-1.2h-0.6l-0.801,0.2l-0.401,0.2l-0.2,0.6l0.2,0.6
			l0.602,0.2c0.199,0,0.399,0,0.601-0.2L296.078,154.6z M296.88,152.6v3.2h-0.802v-0.4l-0.199,0.2l-0.4,0.2h-0.401l-0.399,0.2
			l-1.001-0.4l-0.401-1.2l0.201-0.8l0.6-0.6l1.001-0.2h1.001v-0.2v-0.4l-0.199-0.4h-0.4h-0.401h-0.6l-0.801,0.2v-0.8l0.6-0.2h0.801
			h0.802l0.4,0.4l0.4,0.4L296.88,152.6z M292.074,149.6v6.2h-0.801l-2.803-5.6v5.6h-0.601v-6.2h1.2l2.403,5v-5H292.074z"/>
		<path fill-rule="evenodd" clip-rule="evenodd" d="M286.668,159.6c0,0.4-0.199,0.8-0.4,1c-0.2,0.4-0.601,0.6-1.001,0.6
			c-0.601,0-1.001-0.2-1.201-0.6c-0.2-0.2-0.4-0.6-0.4-1c0-0.6,0.2-1,0.4-1.2c0.2-0.4,0.601-0.6,1.201-0.6
			c0.4,0,0.801,0.2,1.001,0.6C286.469,158.6,286.668,159,286.668,159.6z"/>
		<rect x="217.391" y="193.8" fill-rule="evenodd" clip-rule="evenodd" width="6.007" height="6.4"/>
		<path d="M246.022,189.8c0,0.4-0.199,0.8-0.601,1c-0.401,0.4-1.001,0.6-1.601,0.6l-1.202-0.2l-0.602-0.2v-1.2h0.401l0.201,0.2
			l0.6,0.2l0.602,0.2c0.198,0,0.399,0,0.6-0.2c0.201,0,0.201,0,0.201-0.2l-0.201-0.2l-0.401-0.2l-0.398-0.2h-0.401l-1.001-0.6
			l-0.201-0.8l0.602-1.2c0.399-0.2,1.001-0.4,1.601-0.4l0.8,0.2l0.803,0.2v1.2h-0.2c-0.201-0.2-0.401-0.4-0.603-0.4l-0.8-0.2
			l-0.6,0.2l-0.201,0.2l0.201,0.2c0,0.2,0.2,0.2,0.398,0.2l0.401,0.2h0.401l0.801,0.4L246.022,189.8z M241.017,184.8v1h-1.4v-1
			H241.017z M241.017,186.6v4.6h-1.4v-4.6H241.017z M238.214,188.2v3h-1.202v-2.4v-0.4l-0.199-0.4l-0.201-0.4h-0.401h-0.399
			l-0.401,0.2v3.4h-1.402v-6.4h1.402v2.2l0.6-0.4l0.802-0.2c0.6,0,1.001,0.2,1.2,0.4C238.214,187,238.214,187.6,238.214,188.2z
			 M231.607,188.8l-0.201-1l-0.6-0.2h-0.401l-0.401,0.2v2.4h0.201h0.401c0.399,0,0.6-0.2,0.8-0.4
			C231.607,189.6,231.607,189.4,231.607,188.8z M233.008,188.8v1c-0.199,0.4-0.399,0.6-0.6,0.8c-0.201,0.2-0.401,0.4-0.6,0.6
			c-0.201,0.2-0.401,0.2-0.602,0.2l-0.6-0.2l-0.602-0.2v2h-1.4v-6.4h1.4v0.4l0.602-0.4l0.8-0.2c0.6,0,1.001,0.2,1.202,0.6
			S233.008,188,233.008,188.8z M224.599,187.8v3.4h-1.402v-2.4v-0.6v-0.4l-0.201-0.2h-0.4h-0.401l-0.4,0.2v3.4h-1.402v-4.6h1.402
			v0.4l0.601-0.4l0.801-0.2l0.801,0.2l0.4,0.6l0.801-0.6l0.8-0.2c0.401,0,0.801,0.2,1.001,0.4l0.401,1.4v3H226v-2.4v-0.6v-0.4
			l-0.4-0.2h-0.201h-0.4L224.599,187.8z M216.39,188.2h1.802l-0.2-0.6l-0.601-0.2l-0.6,0.2L216.39,188.2z M219.594,188.6v0.6h-3.204
			l0.401,0.8l1.001,0.4c0.4,0,0.801,0,1.001-0.2l0.601-0.4h0.201v1.2l-1.001,0.2l-0.801,0.2c-1.001,0-1.603-0.2-2.002-0.6
			c-0.4-0.6-0.601-1.2-0.601-1.8c0-0.8,0.201-1.4,0.601-2c0.4-0.4,1.001-0.6,1.802-0.6c0.601,0,1.202,0.2,1.401,0.6
			C219.393,187.4,219.594,188,219.594,188.6z M213.987,185v6.2h-1.401V187l-1.001,2.8h-1.001l-1.001-2.8v4.2h-1.402V185h1.603
			l1.2,3.2l1.402-3.2H213.987z"/>
		<path d="M448.249,267v2.8h-0.801v-2.4v-0.6l-0.2-0.4l-0.2-0.2l-0.4-0.2l-0.601,0.2l-0.4,0.4v3.2h-0.801v-6h0.801v2.2l0.601-0.4
			l0.601-0.2c0.4,0,0.802,0.2,1.001,0.4C448.049,266,448.249,266.4,448.249,267z M443.044,268.8v-1.2h-0.601h-0.802l-0.4,0.4
			l-0.199,0.4l0.199,0.6l0.601,0.2c0.201,0,0.4,0,0.602-0.2C442.644,269,442.843,269,443.044,268.8z M443.645,266.8v3h-0.601v-0.4
			l-0.201,0.2l-0.399,0.2h-0.201c-0.199,0.2-0.4,0.2-0.601,0.2c-0.4,0-0.6-0.2-0.801-0.4c-0.2-0.2-0.4-0.6-0.4-1l0.2-0.8l0.401-0.6
			l1.001-0.2h1.001v-0.2v-0.4l-0.201-0.2l-0.399-0.2h-0.4h-0.602l-0.601,0.2h-0.2v-0.6l0.601-0.2h0.802h0.601l0.6,0.4l0.401,0.4
			V266.8z M439.439,267v2.8h-0.802v-2.4v-0.6l-0.199-0.4l-0.2-0.2l-0.4-0.2l-0.602,0.2l-0.399,0.4v3.2h-0.801v-4.4h0.801v0.6
			l0.601-0.4l0.601-0.2c0.4,0,0.801,0.2,1.001,0.4C439.239,266,439.439,266.4,439.439,267z M434.834,267v2.8h-0.8v-2.4v-0.6
			l-0.201-0.4l-0.2-0.2l-0.4-0.2l-0.601,0.2l-0.4,0.4v3.2h-0.801v-4.4h0.801v0.6l0.601-0.4l0.601-0.2c0.4,0,0.801,0.2,1.001,0.4
			C434.634,266,434.834,266.4,434.834,267z M429.628,268.8v-1.2h-0.6h-0.802l-0.4,0.4l-0.2,0.4l0.2,0.6l0.601,0.2
			c0.2,0,0.401,0,0.602-0.2C429.228,269,429.428,269,429.628,268.8z M430.229,266.8v3h-0.602v-0.4l-0.2,0.2l-0.399,0.2h-0.2
			c-0.201,0.2-0.401,0.2-0.602,0.2c-0.4,0-0.601-0.2-0.801-0.4c-0.2-0.2-0.399-0.6-0.399-1l0.199-0.8l0.4-0.6l1.001-0.2h1.001v-0.2
			v-0.4l-0.2-0.2l-0.399-0.2h-0.401h-0.6l-0.602,0.2h-0.2v-0.6l0.601-0.2h0.801h0.601l0.602,0.4l0.4,0.4V266.8z M425.824,265.4
			h0.801l-1.602,4.4h-0.602l-1.601-4.4h0.8l1.202,3.6L425.824,265.4z M421.219,268.8v-1.2h-0.601h-0.801l-0.401,0.4l-0.2,0.4
			l0.2,0.6l0.603,0.2c0.199,0,0.399,0,0.6-0.2C420.818,269,421.02,269,421.219,268.8z M421.82,266.8v3h-0.602v-0.4l-0.199,0.2
			l-0.401,0.2h-0.2c-0.2,0.2-0.399,0.2-0.601,0.2c-0.401,0-0.602-0.2-0.8-0.4c-0.201-0.2-0.401-0.6-0.401-1l0.2-0.8l0.399-0.6
			l1.002-0.2h1.001v-0.2v-0.4l-0.199-0.2l-0.401-0.2h-0.4h-0.601l-0.6,0.2h-0.201v-0.6l0.6-0.2h0.802h0.601l0.601,0.4l0.401,0.4
			V266.8z M417.815,268.2v0.6l-0.401,0.6l-0.8,0.4c-0.201,0.2-0.401,0.2-0.801,0.2l-1.001-0.2l-1.001-0.4v-0.8h0.2l0.801,0.4
			c0.399,0.2,0.8,0.2,1.001,0.2c0.399,0,0.801,0,1.001-0.2s0.399-0.4,0.399-0.8l-0.199-0.4l-0.602-0.4h-0.6l-0.602-0.2l-1.002-0.6
			l-0.198-1c0-0.6,0.198-1,0.399-1.2l1.402-0.4h1.001l0.801,0.4v0.8l-0.801-0.4l-1.001-0.2l-0.801,0.2l-0.401,0.8l0.201,0.4l0.6,0.4
			l0.602,0.2l0.801,0.2l0.801,0.4L417.815,268.2z"/>
		<path d="M336.725,59.2c0,0.4-0.2,0.8-0.4,1c-0.201,0.2-0.602,0.4-1.202,0.4h-1.001l-0.6-0.2v-1l0.8,0.4l0.801,0.2l0.802-0.2
			c0.199,0,0.199-0.2,0.199-0.4c0-0.2,0-0.4-0.199-0.4l-0.601-0.4h-0.4l-0.4-0.2l-0.802-0.4l-0.199-0.8l0.199-0.6l0.201-0.4
			l0.601-0.2l0.801-0.2l0.601,0.2l0.801,0.2V57h-0.2l-0.601-0.4l-0.802-0.2l-0.6,0.2l-0.201,0.6l0.201,0.4c0,0.2,0.199,0.2,0.4,0.2
			h0.4c0.2,0.2,0.399,0.2,0.399,0.2l0.802,0.4L336.725,59.2z M332.319,56v4.6h-0.8V56H332.319z M332.319,54.4v0.8h-0.8v-0.8H332.319
			z M330.117,54.2v6.4h-0.801v-6.4H330.117z M327.714,58.2c0-0.6-0.2-1-0.399-1.2c-0.201-0.2-0.4-0.4-0.802-0.4l-1.001,0.4l-0.2,1.2
			c0,0.6,0,1.2,0.2,1.4l1.001,0.4c0.401,0,0.601-0.2,0.802-0.4C327.514,59.4,327.714,58.8,327.714,58.2z M328.315,58.2
			c0,0.8-0.201,1.4-0.4,1.8c-0.401,0.6-0.802,0.8-1.402,0.8c-0.6,0-1.201-0.2-1.401-0.8c-0.4-0.4-0.601-1-0.601-1.8l0.601-1.8
			c0.2-0.4,0.802-0.6,1.401-0.6c0.601,0,1.001,0.2,1.402,0.6L328.315,58.2z M323.109,58.2c0-0.6-0.2-1-0.4-1.2
			c-0.201-0.2-0.4-0.4-0.801-0.4h-0.601l-0.601,0.4v2.8l0.601,0.2h0.4c0.399,0,0.8-0.2,1.001-0.4
			C322.909,59.4,323.109,58.8,323.109,58.2z M323.71,58.2c0,0.4,0,0.8-0.201,1c0,0.4-0.199,0.6-0.399,0.8s-0.4,0.4-0.602,0.6h-0.6
			h-0.601c-0.201,0-0.4,0-0.601-0.2v2h-0.801V56h0.801v0.4l0.601-0.4l0.8-0.2c0.602,0,1.002,0.2,1.202,0.6
			C323.509,56.8,323.71,57.4,323.71,58.2z M317.904,59.4v-1.2h-0.603l-0.8,0.2l-0.4,0.2l-0.2,0.6l0.2,0.6l0.601,0.2
			c0.2,0,0.4,0,0.6-0.2L317.904,59.4z M318.704,57.4v3.2h-0.8v-0.4l-0.201,0.2l-0.401,0.2h-0.399l-0.4,0.2l-1.002-0.4l-0.399-1.2
			l0.199-0.8l0.602-0.6l1.001-0.2h1.002v-0.2V57l-0.201-0.4h-0.401h-0.399h-0.602l-0.801,0.2V56l0.602-0.2h0.801h0.801l0.4,0.4
			l0.4,0.4L318.704,57.4z M313.899,57.6v3h-0.602V58l-0.2-0.6v-0.6l-0.4-0.2h-0.4h-0.601l-0.601,0.6v3.4h-0.802V56h0.802v0.4
			l0.802-0.4l0.6-0.2c0.601,0,0.801,0.2,1.001,0.4L313.899,57.6z M308.292,59.4v-1.2h-0.6l-0.801,0.2l-0.401,0.2l-0.2,0.6l0.2,0.6
			l0.6,0.2c0.201,0,0.401,0,0.603-0.2L308.292,59.4z M309.094,57.4v3.2h-0.802v-0.4l-0.2,0.2l-0.399,0.2h-0.401l-0.399,0.2
			l-1.001-0.4l-0.401-1.2l0.201-0.8l0.6-0.6l1.001-0.2h1.001v-0.2V57l-0.2-0.4h-0.399h-0.401h-0.6l-0.801,0.2V56l0.6-0.2h0.801
			h0.801l0.4,0.4l0.401,0.4L309.094,57.4z M304.288,56v4.6h-0.801V56H304.288z M304.288,54.4v0.8h-0.801v-0.8H304.288z
			 M301.485,59.4v-2.6l-0.601-0.2h-0.401l-1.001,0.4l-0.2,1.4l0.2,1.2c0.201,0.2,0.401,0.4,0.801,0.4c0.2,0,0.401,0,0.602-0.2
			C301.084,59.8,301.284,59.6,301.485,59.4z M302.285,54.2v6.4h-0.8v-0.4l-0.601,0.4l-0.802,0.2c-0.601,0-1.001-0.2-1.201-0.8
			c-0.199-0.4-0.4-1-0.4-1.6l0.201-1.2l0.399-0.8l0.602-0.4l0.6-0.2h0.602l0.601,0.4v-2H302.285z M297.28,57.6v3h-0.601V58l-0.2-0.6
			v-0.6l-0.401-0.2h-0.399h-0.602l-0.6,0.6v3.4h-0.801V56h0.801v0.4l0.8-0.4l0.602-0.2c0.601,0,0.801,0.2,1.001,0.4L297.28,57.6z
			 M292.676,60v0.6h-2.203V60h0.6v-5h-0.6v-0.6h2.203V55h-0.802v5H292.676z"/>
		<path fill-rule="evenodd" clip-rule="evenodd" d="M286.469,57.2c0,0.6-0.201,1-0.401,1.2c-0.2,0.2-0.601,0.4-1.201,0.4l-1.001-0.4
			c-0.2-0.2-0.4-0.6-0.4-1.2l0.4-1.2l1.001-0.4c0.601,0,1.001,0.2,1.201,0.4L286.469,57.2z"/>
		<rect x="69.825" y="263.4" fill-rule="evenodd" clip-rule="evenodd" width="6.007" height="6.6"/>
		<path d="M88.646,259.4c0,0.4-0.2,0.8-0.601,1c-0.401,0.4-1.001,0.6-1.602,0.6l-1.202-0.2l-0.601-0.2v-1.2h0.401l0.2,0.2l0.601,0.2
			l0.601,0.2c0.2,0,0.4,0,0.601-0.2c0.2,0,0.2,0,0.2-0.2l-0.2-0.2l-0.401-0.2l-0.4-0.2h-0.4l-1.001-0.6l-0.201-0.8l0.601-1.2
			c0.4-0.2,1.001-0.4,1.602-0.4l0.8,0.2l0.802,0.2v1.2h-0.201c-0.2-0.2-0.4-0.4-0.601-0.4l-0.8-0.2l-0.601,0.2l-0.2,0.2l0.2,0.2
			c0,0.2,0.201,0.2,0.4,0.2l0.401,0.2h0.4l0.801,0.4L88.646,259.4z M82.239,260.8v-0.4l-0.201,0.2l-0.4,0.2h-0.4l-0.4,0.2
			l-1.001-0.4c-0.201-0.2-0.4-0.6-0.4-1.2l0.2-0.8l0.601-0.4l0.8-0.4h1.202l-0.201-0.6l-1.001-0.2l-0.6,0.2l-0.601,0.2h-0.201v-1.2
			l0.802-0.2h1.001c0.8,0,1.401,0.2,1.601,0.4c0.401,0.2,0.601,0.6,0.601,1.2v3.2H82.239z M82.239,259.6v-1h-0.601
			c-0.2,0.2-0.4,0.2-0.4,0.2l-0.4,0.2l-0.201,0.4l0.201,0.2v0.2h0.2l0.401,0.2l0.4-0.2L82.239,259.6z M78.436,254.4v6.4h-1.402v-6.4
			H78.436z M75.833,254.4v6.4h-1.402v-6.4H75.833z M71.828,260.8v-0.4l-0.2,0.2l-0.4,0.2h-0.4l-0.4,0.2l-1.001-0.4
			c-0.2-0.2-0.401-0.6-0.401-1.2l0.201-0.8l0.6-0.4l0.801-0.4h1.201l-0.2-0.6l-1.001-0.2l-0.601,0.2l-0.6,0.2h-0.2v-1.2l0.8-0.2
			h1.001c0.801,0,1.402,0.2,1.602,0.4c0.4,0.2,0.601,0.6,0.601,1.2v3.2H71.828z M71.828,259.6v-1h-0.601c-0.2,0.2-0.4,0.2-0.4,0.2
			l-0.4,0.2l-0.2,0.4l0.2,0.2v0.2h0.2l0.4,0.2l0.4-0.2L71.828,259.6z M66.822,257.8c0-0.6,0-1-0.2-1.2l-0.801-0.6l-0.4-0.2H64.82
			h-0.4v3.8h0.4h0.601c0.2,0,0.4,0,0.6-0.2c0.2-0.2,0.401-0.4,0.601-0.6C66.822,258.6,66.822,258.2,66.822,257.8z M68.224,257.8
			c0,0.6-0.201,1-0.401,1.4c-0.2,0.6-0.4,1-0.801,1.2c-0.2,0.2-0.601,0.2-1.001,0.2c-0.2,0.2-0.6,0.2-1.001,0.2h-2.002v-6.2h2.002
			l1.201,0.2l0.801,0.2c0.4,0.2,0.801,0.6,1.001,1.2C68.224,256.6,68.224,257.2,68.224,257.8z"/>
		<path d="M186.155,282.8v0.8h-0.399h-0.401c-0.401,0-0.6,0-0.801-0.199c-0.2-0.2-0.401-0.601-0.401-1.2V280h-0.4v-0.8h0.4V278h0.8
			v1.2h1.202v0.8h-1.202v1.8v0.601v0.399c0.201,0.2,0.201,0.2,0.201,0.2h0.401h0.4C186.155,283,186.155,283,186.155,282.8z
			 M183.353,279.4v0.6h-0.2h-0.4l-0.602,0.2l-0.399,0.399v3h-0.802V279.2h0.802v0.8l0.6-0.6l0.6-0.2l0.201,0.2H183.353z
			 M179.349,281.4c0-0.601,0-1-0.201-1.2l-0.801-0.4c-0.401,0-0.6,0.2-0.801,0.4s-0.401,0.6-0.401,1.2c0,0.6,0.2,1,0.401,1.199
			c0.201,0.2,0.4,0.4,0.801,0.4l0.801-0.4C179.349,282.4,179.349,282,179.349,281.4z M180.149,281.4c0,0.8-0.201,1.399-0.601,1.8
			c-0.2,0.399-0.601,0.6-1.201,0.6s-1.001-0.2-1.402-0.6c-0.199-0.4-0.4-1-0.4-1.8c0-0.601,0.201-1.2,0.4-1.601l1.402-0.6
			c0.6,0,1.001,0.2,1.201,0.6C179.948,280.2,180.149,280.8,180.149,281.4z M175.144,281.4c0-0.601,0-1-0.201-1.2
			c-0.199-0.2-0.4-0.4-0.801-0.4l-0.6,0.2l-0.401,0.4v2.399l0.401,0.2h0.399c0.401,0,0.802-0.2,1.001-0.4
			C175.144,282.4,175.144,282,175.144,281.4z M175.944,281.4c0,0.399,0,0.8-0.199,1l-0.401,0.6c-0.2,0.2-0.4,0.4-0.6,0.6h-0.602
			h-0.6l-0.401-0.199v1.8h-0.801v-6h0.801v0.6l0.601-0.399l0.6-0.2c0.601,0,1.001,0.2,1.202,0.6
			C175.745,280.2,175.944,280.8,175.944,281.4z M168.336,281h2.203l-0.201-1l-0.8-0.2c-0.401,0-0.602,0.2-0.801,0.4
			C168.536,280.4,168.336,280.6,168.336,281z M171.339,281.2v0.399h-3.003l0.2,0.601l0.2,0.399l0.4,0.4h0.601l0.801-0.2
			c0.2,0,0.4,0,0.6-0.2v0.801l-0.6,0.199h-0.801c-0.601,0-1.202-0.199-1.402-0.399c-0.401-0.4-0.601-1-0.601-1.8
			c0-0.601,0.2-1.2,0.4-1.601l1.402-0.6c0.6,0,1.001,0.2,1.201,0.399C171.139,280,171.339,280.6,171.339,281.2z M166.333,279.2
			h0.801l-1.602,4.399h-0.602l-1.602-4.399h0.801l1.202,3.6L166.333,279.2z M159.926,281h2.202l-0.2-1l-0.801-0.2
			c-0.4,0-0.601,0.2-0.8,0.4C160.126,280.4,159.926,280.6,159.926,281z M162.93,281.2v0.399h-3.003l0.2,0.601l0.201,0.399l0.4,0.4
			h0.601l0.8-0.2c0.201,0,0.401,0,0.602-0.2v0.801l-0.602,0.199h-0.8c-0.601,0-1.202-0.199-1.402-0.399c-0.4-0.4-0.601-1-0.601-1.8
			c0-0.601,0.2-1.2,0.401-1.601l1.401-0.6c0.601,0,1.001,0.2,1.202,0.399C162.73,280,162.93,280.6,162.93,281.2z M158.925,279.4v0.6
			h-0.2h-0.401l-0.6,0.2l-0.401,0.399v3h-0.801V279.2h0.801v0.8l0.6-0.6l0.601-0.2l0.201,0.2H158.925z M155.321,280.8v2.8h-0.801
			V281.2V280.6l-0.2-0.399l-0.201-0.2l-0.4-0.2l-0.601,0.2l-0.4,0.4v3.199h-0.802v-6h0.802v2.2l0.601-0.399l0.6-0.2
			c0.401,0,0.802,0.2,1.001,0.399C155.121,279.8,155.321,280.2,155.321,280.8z M150.916,282v0.6l-0.4,0.601l-0.801,0.399
			c-0.201,0.2-0.401,0.2-0.802,0.2l-1.001-0.2l-1.001-0.399v-0.8h0.201l0.801,0.399c0.4,0.2,0.802,0.2,1.001,0.2
			c0.401,0,0.802,0,1.001-0.2c0.201-0.2,0.401-0.399,0.401-0.8l-0.2-0.4l-0.601-0.399h-0.601l-0.601-0.2l-1.001-0.6l-0.2-1
			c0-0.601,0.2-1,0.401-1.2l1.401-0.4h1.001l0.802,0.4v0.8l-0.802-0.4l-1.001-0.199l-0.8,0.199l-0.4,0.801l0.199,0.399l0.601,0.4
			l0.601,0.2l0.8,0.199l0.802,0.4L150.916,282z"/>
		<rect x="115.877" y="87.4" fill-rule="evenodd" clip-rule="evenodd" width="5.807" height="6.6"/>
		<path d="M156.923,81l1.001,3l1.001-3h1.402l-2.403,6.4h-1.602l0.801-1.8l-1.602-4.6H156.923z M155.121,84.6v1h-0.6
			c-0.2,0.2-0.401,0.2-0.602,0.2c-0.6,0-0.8-0.2-1.001-0.4c-0.199-0.2-0.4-0.6-0.4-1.2V82h-0.601v-1h0.601v-1.4h1.202V81h1.401v1
			h-1.401v1.6V84l0.199,0.4l0.201,0.2c0,0.2,0.201,0.2,0.401,0.2l0.201-0.2h0.199H155.121z M151.116,79.2v1h-1.401v-1H151.116z
			 M151.116,81v4.6h-1.401V81H151.116z M146.712,85.8l-1.202-0.2L144.71,85l-0.602-1l-0.2-1.4l0.2-1.4l0.602-1l0.801-0.6l1.202-0.4
			l0.6,0.2h0.601l0.4,0.2l0.401,0.2v1.6h-0.201l-0.201-0.4l-0.4-0.2l-0.4-0.2l-0.602-0.2l-0.399,0.2L145.91,81l-0.399,0.6v1v0.8
			l0.399,0.8l0.602,0.2l0.399,0.2c0.201,0,0.401,0,0.602-0.2l0.4-0.2l0.4-0.2l0.201-0.2h0.201v1.4l-0.401,0.2l-0.4,0.2h-0.4
			L146.712,85.8z M140.705,84.2c0,0.4-0.2,0.8-0.602,1c-0.399,0.4-1.001,0.6-1.601,0.6l-1.202-0.2l-0.6-0.2v-1.2h0.4l0.2,0.2
			l0.601,0.2l0.602,0.2c0.2,0,0.399,0,0.6-0.2c0.201,0,0.201,0,0.201-0.2l-0.201-0.2l-0.399-0.2l-0.401-0.2h-0.401l-1.001-0.6
			l-0.2-0.8l0.6-1.2c0.401-0.2,1.001-0.4,1.602-0.4l0.802,0.2l0.801,0.2v1.2h-0.201c-0.201-0.2-0.4-0.4-0.6-0.4l-0.802-0.2l-0.6,0.2
			l-0.201,0.2l0.201,0.2c0,0.2,0.201,0.2,0.401,0.2l0.399,0.2h0.401l0.8,0.4L140.705,84.2z M134.298,85.6v-0.4l-0.201,0.2l-0.4,0.2
			h-0.4l-0.401,0.2l-1.001-0.4c-0.199-0.2-0.4-0.6-0.4-1.2l0.201-0.8l0.6-0.4l0.801-0.4h1.202l-0.201-0.6l-1.001-0.2l-0.601,0.2
			l-0.601,0.2h-0.199V81l0.8-0.2h1.001c0.801,0,1.401,0.2,1.601,0.4c0.401,0.2,0.602,0.6,0.602,1.2v3.2H134.298z M134.298,84.4v-1
			h-0.601c-0.2,0.2-0.4,0.2-0.4,0.2l-0.401,0.2l-0.2,0.4l0.2,0.2v0.2h0.2l0.401,0.2l0.4-0.2L134.298,84.4z M130.894,84.2
			c0,0.4-0.2,0.8-0.6,1c-0.401,0.4-1.001,0.6-1.602,0.6l-1.202-0.2l-0.601-0.2v-1.2h0.401l0.2,0.2l0.6,0.2l0.602,0.2
			c0.199,0,0.4,0,0.6-0.2c0.2,0,0.2,0,0.2-0.2l-0.2-0.2l-0.401-0.2l-0.4-0.2h-0.401l-1.001-0.6l-0.2-0.8l0.601-1.2
			c0.399-0.2,1.001-0.4,1.602-0.4l0.801,0.2l0.801,0.2v1.2h-0.2c-0.2-0.2-0.401-0.4-0.601-0.4l-0.801-0.2l-0.601,0.2l-0.2,0.2
			l0.2,0.2c0,0.2,0.201,0.2,0.4,0.2l0.401,0.2h0.401l0.801,0.4L130.894,84.2z M125.888,82.6v3h-1.201v-2.4v-0.4l-0.2-0.4l-0.2-0.4
			h-0.401h-0.4l-0.401,0.2v3.4h-1.401V81h1.401v0.4l0.601-0.4l0.801-0.2c0.601,0,1.001,0.2,1.201,0.4
			C125.888,81.4,125.888,82,125.888,82.6z M119.081,85.6v-0.4l-0.2,0.2l-0.4,0.2h-0.401l-0.4,0.2l-1.001-0.4
			c-0.2-0.2-0.401-0.6-0.401-1.2l0.201-0.8l0.6-0.4l0.801-0.4h1.201l-0.2-0.6l-1.001-0.2l-0.601,0.2l-0.6,0.2h-0.2V81l0.8-0.2h1.001
			c0.801,0,1.402,0.2,1.602,0.4c0.4,0.2,0.601,0.6,0.601,1.2v3.2H119.081z M119.081,84.4v-1h-0.6c-0.201,0.2-0.401,0.2-0.401,0.2
			l-0.4,0.2l-0.2,0.4l0.2,0.2v0.2h0.2l0.4,0.2l0.4-0.2L119.081,84.4z M113.475,82.2l2.402,3.4h-1.802l-1.602-2.4l-0.401,0.4v2
			h-1.402v-6.2h1.402v2.8l2.002-2.8h1.602L113.475,82.2z"/>
		<path d="M95.454,45.4v3h-0.601v-2.6l-0.2-0.6v-0.6l-0.401-0.2h-0.4h-0.601l-0.6,0.6v3.4H91.85v-4.6h0.801v0.4l0.801-0.4l0.601-0.2
			c0.601,0,0.801,0.2,1.001,0.4L95.454,45.4z M90.449,42v6.4h-0.801V42H90.449z M88.046,46c0-0.6-0.2-1-0.401-1.2
			c-0.2-0.2-0.4-0.4-0.8-0.4l-1.001,0.4L85.643,46c0,0.6,0,1.2,0.201,1.4l1.001,0.4c0.4,0,0.601-0.2,0.8-0.4
			C87.846,47.2,88.046,46.6,88.046,46z M88.646,46c0,0.8-0.2,1.4-0.4,1.8c-0.4,0.6-0.801,0.8-1.401,0.8
			c-0.601,0-1.202-0.2-1.401-0.8c-0.401-0.4-0.601-1-0.601-1.8l0.601-1.8c0.2-0.4,0.8-0.6,1.401-0.6c0.601,0,1.001,0.2,1.401,0.6
			L88.646,46z M84.242,47.2v1l-0.601,0.2h-0.8h-0.802l-0.6-0.4l-0.401-0.8l-0.2-1.2l0.601-1.8l1.401-0.6l0.8,0.2l0.601,0.2v0.8
			l-0.801-0.4H82.84l-1.001,0.4L81.639,46c0,0.6,0,1.2,0.201,1.4l1.001,0.4h0.4l0.4-0.2l0.4-0.2L84.242,47.2z M79.636,45.4v3h-0.601
			v-2.6l-0.2-0.6v-0.6l-0.4-0.2h-0.401h-0.6L76.833,45v3.4h-0.801v-4.6h0.801v0.4l0.801-0.4l0.601-0.2c0.601,0,0.801,0.2,1.001,0.4
			L79.636,45.4z M74.832,43.8v4.6H74.03v-4.6H74.832z M74.832,42.2V43H74.03v-0.8H74.832z M73.43,47.6v0.8h-3.604v-6.2h0.801v5.4
			H73.43z"/>
		<path fill-rule="evenodd" clip-rule="evenodd" d="M82.039,36.2c0.401,0,0.802,0.2,1.001,0.4l0.401,1.2L83.04,39
			c-0.2,0.2-0.6,0.4-1.001,0.4L81.038,39l-0.4-1.2l0.4-1.2L82.039,36.2z"/>
		<path d="M115.076,181.2V180h-0.601h-0.801l-0.4,0.4l-0.2,0.4l0.2,0.6l0.601,0.2c0.2,0,0.4,0,0.601-0.2
			C114.675,181.4,114.876,181.4,115.076,181.2z M115.677,179.2v3h-0.601v-0.4l-0.2,0.2l-0.4,0.2h-0.2c-0.2,0.2-0.4,0.2-0.601,0.2
			c-0.4,0-0.6-0.2-0.8-0.4c-0.201-0.2-0.4-0.6-0.4-1l0.2-0.8l0.401-0.6l1.001-0.2h1.001v-0.2v-0.4l-0.2-0.2l-0.4-0.2h-0.4h-0.601
			l-0.601,0.2h-0.201V178l0.601-0.2h0.801h0.6l0.601,0.4l0.4,0.4V179.2z M111.672,181c0,0.4-0.199,0.8-0.4,1
			c-0.2,0.2-0.601,0.2-1.202,0.2h-0.801l-0.601-0.2v-0.8l0.801,0.4h0.6h0.601c0.201-0.2,0.401-0.4,0.401-0.6l-0.2-0.4l-0.4-0.2
			h-0.401l-0.4-0.2l-0.801-0.4l-0.2-0.8l0.2-0.4l0.2-0.4l0.601-0.4h0.601h0.601l0.601,0.4v0.6l-0.601-0.2l-0.601-0.2l-0.601,0.2
			c-0.2,0-0.4,0.2-0.4,0.4l0.201,0.4l0.6,0.2l0.2,0.2h0.4l0.802,0.4C111.672,180.4,111.672,180.6,111.672,181z M107.668,176.2v6
			h-0.801v-6H107.668z M105.666,177.8v4.4h-0.601v-0.4l-0.6,0.4l-0.601,0.2c-0.601,0-0.801-0.2-1.001-0.4
			c-0.201-0.4-0.401-0.8-0.401-1.4v-2.8h0.601v2.6l0.201,0.6v0.4l0.2,0.2h0.601h0.401l0.6-0.4v-3.4H105.666z M102.462,176.4v0.8
			h-1.802v5h-0.801v-5h-1.802v-0.8H102.462z"/>
		<path d="M268.047,317.8l-0.127-0.021l-1.355-0.497c-0.457-0.455-0.719-1.142-0.719-1.883c0-0.949,0.447-1.371,0.822-1.558
			l1.379-0.643c0.679,0,1.183,0.215,1.685,0.718c0.329,0.328,0.519,0.868,0.519,1.483c0,0.808-0.311,1.514-0.444,1.779l-0.06,0.119
			l-0.118,0.059C269.214,317.565,268.744,317.8,268.047,317.8z M267.068,316.652l1.041,0.347c0.42-0.012,0.719-0.139,1.037-0.296
			c0.191-0.421,0.303-0.899,0.303-1.303c0-0.468-0.146-0.78-0.283-0.917c-0.329-0.33-0.614-0.466-1.028-0.482l-1.112,0.557
			c-0.163,0.081-0.379,0.257-0.379,0.842C266.646,315.895,266.799,316.346,267.068,316.652z"/>
		<path d="M342.331,225.2h-6.808V217.8h6.808V225.2z M336.324,224.4h5.206v-5.8h-5.206V224.4z"/>
		<path d="M411.008,312.2H404.4V304.8h6.607V312.2z M405.201,311.4h5.006v-5.8h-5.006V311.4z"/>
		<path d="M344.934,316.4c-0.958,0-1.641-0.274-2.284-0.917c-0.61-0.609-0.92-1.444-0.92-2.483c0-1.126,0.258-1.823,0.92-2.483
			c0.553-0.552,1.257-1.117,2.284-1.117s1.731,0.564,2.284,1.117c0.662,0.661,0.92,1.357,0.92,2.483c0,1.039-0.31,1.875-0.92,2.483
			C346.574,316.126,345.892,316.4,344.934,316.4z M344.934,310.2c-0.593,0-1.091,0.256-1.72,0.883
			c-0.512,0.511-0.684,0.995-0.684,1.917c0,0.819,0.229,1.464,0.684,1.917c0.492,0.492,0.975,0.683,1.72,0.683
			s1.228-0.191,1.72-0.683c0.454-0.453,0.684-1.098,0.684-1.917c0-0.922-0.172-1.406-0.684-1.917
			C346.024,310.456,345.526,310.2,344.934,310.2z"/>
		<path d="M408.404,173.6h-6.607v-7.4h6.607V173.6z M402.598,172.8h5.006V167h-5.006V172.8z"/>
		<path d="M285.267,163c-1.028,0-1.731-0.564-2.285-1.117c-0.643-0.643-0.918-1.326-0.918-2.283c0-1.127,0.258-1.823,0.918-2.483
			c0.554-0.552,1.257-1.117,2.285-1.117c0.661,0,1.323,0.355,2.085,1.117c0.661,0.661,0.919,1.357,0.919,2.483
			c0,0.957-0.275,1.639-0.919,2.283C286.59,162.645,285.928,163,285.267,163z M285.267,156.8c-0.594,0-1.092,0.256-1.719,0.883
			c-0.512,0.511-0.684,0.995-0.684,1.917c0,0.744,0.191,1.226,0.684,1.717c0.627,0.627,1.125,0.883,1.719,0.883
			c0.429,0,0.926-0.289,1.519-0.883c0.493-0.492,0.685-0.974,0.685-1.717c0-0.922-0.172-1.406-0.685-1.917
			C286.192,157.089,285.695,156.8,285.267,156.8z"/>
		<path d="M223.797,200.6h-6.807v-7.2h6.807V200.6z M217.791,199.8h5.207V194.2h-5.207V199.8z"/>
		<path d="M414.611,262.4c-0.898,0-1.325-0.4-1.527-0.761c-0.472-0.488-0.674-0.982-0.674-1.639l0.032-0.158l0.6-1.4
			c0.198-0.396,0.621-0.842,1.569-0.842c0.898,0,1.325,0.4,1.528,0.761c0.472,0.489,0.674,0.982,0.674,1.639
			s-0.202,1.15-0.674,1.639C415.937,262,415.51,262.4,414.611,262.4z M413.212,260.079c0.015,0.419,0.149,0.707,0.481,1.039
			l0.074,0.104c0.082,0.163,0.258,0.379,0.844,0.379s0.763-0.217,0.845-0.38l0.074-0.103c0.352-0.352,0.482-0.655,0.482-1.117
			s-0.131-0.765-0.482-1.117l-0.074-0.103c-0.082-0.163-0.259-0.38-0.845-0.38s-0.762,0.216-0.844,0.379L413.212,260.079z"/>
		<path d="M284.866,60.8c-0.659,0-1.321-0.355-2.085-1.117c-0.711-0.711-1.119-1.616-1.119-2.483s0.408-1.772,1.118-2.483
			c0.619-0.617,1.301-0.917,2.086-0.917c0.958,0,1.642,0.274,2.285,0.917c0.609,0.608,0.918,1.444,0.918,2.483
			s-0.309,1.875-0.917,2.483C286.598,60.235,285.894,60.8,284.866,60.8z M284.866,54.6c-0.57,0-1.053,0.217-1.521,0.683
			c-0.561,0.562-0.883,1.261-0.883,1.917s0.322,1.355,0.884,1.917c0.595,0.594,1.093,0.883,1.52,0.883
			c0.593,0,1.092-0.256,1.721-0.883c0.452-0.452,0.682-1.097,0.682-1.917c0-0.82-0.229-1.465-0.683-1.917
			C286.094,54.792,285.611,54.6,284.866,54.6z"/>
		<path d="M76.232,270.4h-6.807V263h6.807V270.4z M70.225,269.6h5.208v-5.8h-5.208V269.6z"/>
		<path d="M147.112,275.6c-0.898,0-1.325-0.4-1.527-0.761c-0.472-0.489-0.674-0.982-0.674-1.639l0.032-0.158l0.6-1.4
			c0.198-0.396,0.621-0.842,1.569-0.842c0.899,0,1.326,0.4,1.527,0.76c0.473,0.488,0.675,0.981,0.675,1.64s-0.202,1.152-0.675,1.639
			C148.437,275.2,148.011,275.6,147.112,275.6z M145.711,273.279c0.015,0.418,0.15,0.707,0.482,1.039l0.074,0.104
			c0.082,0.163,0.258,0.379,0.844,0.379c0.586,0,0.762-0.216,0.843-0.379l0.076-0.104c0.352-0.351,0.483-0.653,0.483-1.117
			c0-0.463-0.131-0.766-0.483-1.117l-0.075-0.104c-0.081-0.163-0.257-0.378-0.843-0.378c-0.586,0-0.763,0.216-0.844,0.379
			L145.711,273.279z"/>
		<path d="M122.083,94.4h-6.606V87h6.606V94.4z M116.277,93.6h5.007v-5.8h-5.007V93.6z"/>
		<path d="M82.039,41.2c-0.958,0-1.642-0.274-2.285-0.917c-0.609-0.609-0.918-1.445-0.918-2.483c0-1.038,0.309-1.874,0.918-2.482
			c0.644-0.643,1.327-0.917,2.285-0.917c0.959,0,1.642,0.274,2.285,0.917c0.609,0.609,0.918,1.444,0.918,2.482
			s-0.309,1.874-0.918,2.483C83.681,40.926,82.998,41.2,82.039,41.2z M82.039,35.2c-0.745,0-1.227,0.192-1.719,0.683
			c-0.454,0.454-0.684,1.099-0.684,1.917c0,0.819,0.23,1.464,0.684,1.917c0.492,0.491,0.974,0.683,1.719,0.683
			c0.746,0,1.229-0.191,1.72-0.683c0.454-0.454,0.684-1.099,0.684-1.917c0-0.818-0.23-1.463-0.684-1.917
			C83.267,35.391,82.785,35.2,82.039,35.2z"/>
		<path d="M97.857,174.4c-0.509,0-1.008-0.241-1.484-0.717l-0.075-0.104c-0.208-0.415-0.442-0.884-0.442-1.579l0.015-0.11
			l0.449-1.569l1.538-0.721c0.677,0,1.181,0.214,1.685,0.717l0.073,0.073l0.444,1.61c0,0.696-0.235,1.165-0.442,1.579l-0.075,0.104
			C99.038,174.186,98.534,174.4,97.857,174.4z M96.983,173.161c0.305,0.291,0.598,0.439,0.874,0.439c0.443,0,0.74-0.12,1.074-0.439
			c0.172-0.345,0.316-0.656,0.327-1.107l-0.354-1.24c-0.3-0.278-0.574-0.396-0.956-0.412l-0.956,0.478l-0.336,1.174
			C96.667,172.504,96.811,172.815,96.983,173.161z"/>
	</g>
</g>
</svg>
